<?xml version="1.0" encoding="iso-8859-1"?>
<!-- Generator: Adobe Illustrator 19.0.0, SVG Export Plug-In . SVG Version: 6.00 Build 0)  -->
<svg xmlns="http://www.w3.org/2000/svg" xmlns:xlink="http://www.w3.org/1999/xlink" version="1.1" id="Capa_1" x="0px" y="0px" viewBox="0 0 512 512" style="enable-background:new 0 0 512 512;" xml:space="preserve" width="512px" height="512px">
<g>
	<g>
		<path d="M463.409,0H48.581C37.42,0,28.339,9.091,28.339,20.252v256.015c0,4.159,3.365,7.534,7.534,7.534    c4.159,0,7.534-3.375,7.534-7.534V20.252c0-2.813,2.371-5.184,5.174-5.184h414.828c2.813,0,5.184,2.371,5.184,5.184V169.12    c0,4.159,3.375,7.534,7.534,7.534s7.534-3.375,7.534-7.534V20.252C483.661,9.091,474.58,0,463.409,0z" fill="#FFFFFF"/>
	</g>
</g>
<g>
	<g>
		<path d="M476.127,191.722c-4.159,0-7.534,3.365-7.534,7.534v118.017c0,2.803-2.371,5.184-5.184,5.184h-65.9v-11.251h1.376    c10.739,0,19.469-8.74,19.469-19.469v-57.09c0-10.739-8.73-19.469-19.469-19.469h-57.09c-10.729,0-19.459,8.73-19.459,19.469    v57.09c0,10.729,8.73,19.469,19.459,19.469h1.788v11.251H48.581c-2.803,0-5.174-2.381-5.174-5.184v-10.87    c0-4.169-3.375-7.534-7.534-7.534c-4.169,0-7.534,3.365-7.534,7.534v10.87c0,11.161,9.081,20.252,20.242,20.252h295.003v18.735    l-4.762-3.807c-11.251-9.212-28.028-7.685-37.43,3.416c-9.71,11.502-7.682,28.846,3.767,38.264l38.425,31.624    c0.867,9.603-2.838,20.247,6.238,30.569c-2.943,3.576-4.711,8.147-4.711,13.12v23.849c0,10.317,8.388,18.705,18.705,18.705h85.509    c10.317,0,18.705-8.388,18.705-18.705v-23.849c0-4.36-1.356-8.408-3.667-11.743c4.651-4.541,7.544-10.88,7.544-17.881v-66.874    c0-13.803-11.231-25.034-25.034-25.034h-49.365v-10.387h65.9c11.171,0,20.252-9.091,20.252-20.252V199.257    C483.661,195.088,480.286,191.722,476.127,191.722z M451.957,493.295L451.957,493.295c0,1.457-1.175,2.632-2.632,2.632h-85.509    c-1.447,0-2.632-1.175-2.632-2.632v-23.849c0-2.491,2.1-4.591,4.591-4.591c10.693,0,72.545,0,81.099,0h0.502    c2.481,0,4.581,2.1,4.581,4.591V493.295z M446.874,363.986L446.874,363.986c4.943,0,8.961,4.018,8.961,8.961v66.874    c0,4.943-4.018,8.961-8.961,8.961h-78.256c-4.943,0-8.961-4.018-8.961-8.961v-15.491c0-3.918-1.738-7.584-4.762-10.076    l-39.52-32.528c-2.31-1.899-3.787-4.721-4.058-7.755c-0.598-6.578,4.548-11.492,10.548-11.492c3.434,0,5.132,1.335,6.871,2.491    l9.714,7.775c3.958,3.164,9.242,3.767,13.803,1.577c5.121-2.465,7.906-7.689,7.424-13.471c-0.031-0.628-0.02,2.997-0.02-88.302    c0-3.054,1.246-5.897,3.526-7.996c7.109-6.543,18.253-1.326,18.253,8.378c0,13.926,0,61.328,0,83.018    c0,4.44,3.606,8.037,8.037,8.037H446.874z M352.283,252.74c-5.535,5.103-8.7,12.326-8.7,19.81v23.587h-1.788    c-2.421,0-4.39-1.979-4.39-4.4v-57.09c0-2.431,1.969-4.4,4.39-4.4h57.09c2.431,0,4.4,1.969,4.4,4.4v57.09    c0,2.421-1.969,4.4-4.4,4.4h-1.376v-23.206C397.509,249.492,369.785,236.607,352.283,252.74z" fill="#FFFFFF"/>
	</g>
</g>
<g>
	<g>
		<path d="M89.226,218.464H78.347c-7.896,0-14.325,6.429-14.325,14.325v10.88c0,7.906,6.429,14.335,14.325,14.335h10.88    c7.906,0,14.335-6.429,14.335-14.335v-10.88C103.561,224.893,97.132,218.464,89.226,218.464z M88.493,242.936H79.09v-9.403h9.403    V242.936z" fill="#FFFFFF"/>
	</g>
</g>
<g>
	<g>
		<path d="M144.186,218.464h-10.88c-7.896,0-14.325,6.429-14.325,14.325v10.88c0,7.906,6.429,14.335,14.325,14.335h10.88    c7.896,0,14.325-6.429,14.325-14.335v-10.88C158.511,224.893,152.082,218.464,144.186,218.464z M143.443,242.936h-9.393v-9.403    h9.393V242.936z" fill="#FFFFFF"/>
	</g>
</g>
<g>
	<g>
		<path d="M199.146,218.464h-10.88c-7.906,0-14.335,6.429-14.335,14.325v10.88c0,7.906,6.429,14.335,14.335,14.335h10.88    c7.896,0,14.325-6.429,14.325-14.335v-10.88C213.471,224.893,207.042,218.464,199.146,218.464z M198.403,242.936H189v-9.403h9.403    V242.936z" fill="#FFFFFF"/>
	</g>
</g>
<g>
	<g>
		<path d="M254.106,218.464h-10.88c-7.906,0-14.335,6.429-14.335,14.325v10.88c0,7.906,6.429,14.335,14.335,14.335h10.88    c7.896,0,14.325-6.429,14.325-14.335v-10.88C268.432,224.893,262.002,218.464,254.106,218.464z M253.363,242.936h-9.403v-9.403    h9.403V242.936z" fill="#FFFFFF"/>
	</g>
</g>
<g>
	<g>
		<path d="M89.226,266.935h-10.88c-7.896,0-14.325,6.429-14.325,14.325v10.88c0,7.896,6.429,14.325,14.325,14.325h10.88    c7.906,0,14.335-6.429,14.335-14.325v-10.88C103.561,273.364,97.132,266.935,89.226,266.935z M88.493,291.396H79.09v-9.393h9.403    V291.396z" fill="#FFFFFF"/>
	</g>
</g>
<g>
	<g>
		<path d="M144.186,266.935h-10.88c-7.896,0-14.325,6.429-14.325,14.325v10.88c0,7.896,6.429,14.325,14.325,14.325h10.88    c7.896,0,14.325-6.429,14.325-14.325v-10.88C158.511,273.364,152.082,266.935,144.186,266.935z M143.443,291.396h-9.393v-9.393    h9.393V291.396z" fill="#FFFFFF"/>
	</g>
</g>
<g>
	<g>
		<path d="M199.146,266.935h-10.88c-7.906,0-14.335,6.429-14.335,14.325v10.88c0,7.896,6.429,14.325,14.335,14.325h10.88    c7.896,0,14.325-6.429,14.325-14.325v-10.88C213.471,273.364,207.042,266.935,199.146,266.935z M198.403,291.396H189v-9.393h9.403    V291.396z" fill="#FFFFFF"/>
	</g>
</g>
<g>
	<g>
		<path d="M254.106,266.935h-10.88c-7.906,0-14.335,6.429-14.335,14.325v10.88c0,7.896,6.429,14.325,14.335,14.325h10.88    c7.896,0,14.325-6.429,14.325-14.325v-10.88C268.432,273.364,262.002,266.935,254.106,266.935z M253.363,291.396h-9.403v-9.393    h9.403V291.396z" fill="#FFFFFF"/>
	</g>
</g>
<g>
	<g>
		<path d="M429.395,68.808H311.293c-4.162,0-7.534,3.373-7.534,7.534s3.372,7.534,7.534,7.534h118.102    c4.162,0,7.534-3.373,7.534-7.534S433.557,68.808,429.395,68.808z" fill="#FFFFFF"/>
	</g>
</g>
<g>
	<g>
		<path d="M445.043,100.945H295.645c-4.162,0-7.534,3.373-7.534,7.534s3.372,7.534,7.534,7.534h149.398    c4.162,0,7.534-3.373,7.534-7.534S449.205,100.945,445.043,100.945z" fill="#FFFFFF"/>
	</g>
</g>
<g>
	<g>
		<path d="M412.828,36.671H327.86c-4.162,0-7.534,3.373-7.534,7.534c0,4.161,3.372,7.534,7.534,7.534h84.968    c4.162,0,7.534-3.373,7.534-7.534C420.362,40.044,416.99,36.671,412.828,36.671z" fill="#FFFFFF"/>
	</g>
</g>
<g>
	<g>
		<path d="M412.828,165.221H327.86c-4.162,0-7.534,3.373-7.534,7.534c0,4.161,3.372,7.534,7.534,7.534h84.968    c4.162,0,7.534-3.373,7.534-7.534C420.362,168.594,416.99,165.221,412.828,165.221z" fill="#FFFFFF"/>
	</g>
</g>
<g>
	<g>
		<path d="M429.395,133.084H311.293c-4.162,0-7.534,3.373-7.534,7.534s3.372,7.534,7.534,7.534h118.102    c4.162,0,7.534-3.373,7.534-7.534S433.557,133.084,429.395,133.084z" fill="#FFFFFF"/>
	</g>
</g>
<g>
	<g>
		<path d="M191.27,26.32c-10.307,0-18.695,8.388-18.695,18.695c0,10.307,8.388,18.695,18.695,18.695    c10.307,0,18.695-8.388,18.695-18.695C209.965,34.708,201.577,26.32,191.27,26.32z M191.27,48.641    c-1.999,0-3.627-1.627-3.627-3.627c0-1.999,1.627-3.626,3.627-3.626c1.999,0,3.626,1.627,3.626,3.626    C194.897,47.014,193.27,48.641,191.27,48.641z" fill="#FFFFFF"/>
	</g>
</g>
<g>
	<g>
		<path d="M141.182,26.32c-10.307,0-18.695,8.388-18.695,18.695c0,10.307,8.388,18.695,18.695,18.695s18.695-8.388,18.695-18.695    C159.878,34.708,151.489,26.32,141.182,26.32z M141.182,48.641c-1.999,0-3.627-1.627-3.627-3.627c0-1.999,1.627-3.626,3.627-3.626    c1.999,0,3.626,1.627,3.626,3.626C144.809,47.014,143.182,48.641,141.182,48.641z" fill="#FFFFFF"/>
	</g>
</g>
<g>
	<g>
		<path d="M252.085,77.423h-74.961c-4.162,0-7.534,3.373-7.534,7.534c0,4.161,3.372,7.534,7.534,7.534h74.961    c3.244,0,5.881,2.638,5.881,5.882v83.177c0,3.243-2.638,5.881-5.881,5.881H80.366c-3.244,0-5.881-2.638-5.881-5.881V98.374    c0-3.244,2.638-5.882,5.881-5.882h66.621c4.162,0,7.534-3.373,7.534-7.534c0-4.161-3.372-7.534-7.534-7.534H80.366    c-11.552,0-20.949,9.399-20.949,20.95v83.177c0,11.552,9.398,20.949,20.949,20.949h171.719c11.552,0,20.949-9.398,20.949-20.949    V98.374C273.034,86.821,263.637,77.423,252.085,77.423z" fill="#FFFFFF"/>
	</g>
</g>
<g>
</g>
<g>
</g>
<g>
</g>
<g>
</g>
<g>
</g>
<g>
</g>
<g>
</g>
<g>
</g>
<g>
</g>
<g>
</g>
<g>
</g>
<g>
</g>
<g>
</g>
<g>
</g>
<g>
</g>
</svg>
