<?xml version="1.0" encoding="UTF-8"?>
<svg width="93px" height="126px" viewBox="0 0 93 126" version="1.1" xmlns="http://www.w3.org/2000/svg" xmlns:xlink="http://www.w3.org/1999/xlink">
    <!-- Generator: Sketch 50.2 (55047) - http://www.bohemiancoding.com/sketch -->
    <title>Add Personel</title>
    <desc>Created with Sketch.</desc>
    <defs></defs>
    <g id="Page-1" stroke="none" stroke-width="1" fill="none" fill-rule="evenodd">
        <g id="Personel" transform="translate(-163.000000, -48.000000)">
            <g id="Add-Personel" transform="translate(162.000000, 18.000000)">
                <g id="Employees" transform="translate(0.000000, 39.000000)" fill="#FFFFFF" fill-rule="nonzero">
                    <g id="standing-up-man-">
                        <ellipse id="Oval" cx="25.1969243" cy="9.79577847" rx="9.71782798" ry="9.79577847"></ellipse>
                        <path d="M28.5821007,24.2623197 C26.1607293,23.7667712 23.5280539,23.7885057 21.1498058,24.353605 C4.9936742,26.2619018 -0.252271106,45.1123093 1.22901308,59.4853918 C1.87154974,65.6993103 11.5893777,65.7645141 10.9403726,59.4853918 C10.4013317,54.2473563 10.6320412,46.3424869 13.3940864,40.7240961 C13.3940864,47.5531034 13.3940864,54.3821108 13.3940864,61.2089446 C13.3940864,61.4501985 13.4178042,61.6762382 13.428585,61.9087983 C13.4221165,62.0196447 13.3962426,62.1131034 13.3962426,62.2261233 C13.3962426,78.4814211 13.3682124,94.7301985 12.701958,110.972456 C12.4065636,118.192685 23.5129608,118.164431 23.806199,110.972456 C24.3279905,98.2425078 24.4595164,85.5060397 24.4897027,72.7673981 C25.0158066,72.8021735 25.5419104,72.8021735 26.0680143,72.771745 C26.1003567,85.5103866 26.2275704,98.2468548 26.7450495,110.972456 C27.0404439,118.164431 38.1468411,118.192685 37.8492905,110.972456 C37.1830361,94.7301985 37.1593183,78.4814211 37.1593183,62.2261233 C37.1593183,61.7218809 37.0924772,61.2632811 36.9911375,60.822069 C36.9760444,53.7648485 36.7086801,46.7011076 36.7906143,39.6482341 C40.0981688,45.2927064 40.4000317,53.9017764 39.8264923,59.4810449 C39.175331,65.7558203 48.8953151,65.69279 49.5378518,59.4810449 C51.0536346,44.8101985 45.5554182,25.4707628 28.5821007,24.2623197 Z" id="Shape"></path>
                    </g>
                </g>
                <text id="+" font-family="AvenirNext-Bold, Avenir Next" font-size="72" font-weight="bold" fill="#141420">
                    <tspan x="50.024" y="72">+</tspan>
                </text>
            </g>
        </g>
    </g>
</svg>