<?xml version="1.0" encoding="UTF-8"?>
<svg width="106px" height="116px" viewBox="0 0 106 116" version="1.1" xmlns="http://www.w3.org/2000/svg" xmlns:xlink="http://www.w3.org/1999/xlink">
    <!-- Generator: Sketch 50.2 (55047) - http://www.bohemiancoding.com/sketch -->
    <title>Add Device</title>
    <desc>Created with Sketch.</desc>
    <defs></defs>
    <g id="Page-1" stroke="none" stroke-width="1" fill="none" fill-rule="evenodd">
        <g id="Device" transform="translate(-150.000000, -48.000000)">
            <g id="Add-Device" transform="translate(150.000000, 18.000000)">
                <g id="calculator" transform="translate(0.000000, 40.000000)" fill="#FFFFFF" fill-rule="nonzero">
                    <path d="M77.679,0 L5.5755,0 C2.9205,0 0.7695,2.15325 0.7695,4.80825 L0.7695,100.944 C0.7695,103.599 2.92275,105.75225 5.5755,105.75225 L77.679,105.75225 C80.334,105.75225 82.485,103.599 82.485,100.944 L82.485,4.80825 C82.485,2.15325 80.334,0 77.679,0 Z M72.87075,9.612 L72.87075,24.03225 L10.3815,24.03225 L10.3815,9.612 L72.87075,9.612 Z M10.3815,96.14025 L10.3815,33.6465 L72.87075,33.6465 L72.87075,96.1335 L10.3815,96.1335 L10.3815,96.14025 Z" id="Shape"></path>
                    <path d="M27.56925,37.899 L17.5905,37.899 C16.263,37.899 15.1875,38.97675 15.1875,40.302 L15.1875,50.2875 C15.1875,51.615 16.26525,52.6905 17.5905,52.6905 L27.56925,52.6905 C28.89675,52.6905 29.97225,51.61275 29.97225,50.2875 L29.97225,40.302 C29.9745,38.97225 28.90125,37.899 27.56925,37.899 Z" id="Shape"></path>
                    <path d="M46.61325,37.899 L36.63675,37.899 C35.30925,37.899 34.23375,38.97675 34.23375,40.302 L34.23375,50.2875 C34.23375,51.615 35.30925,52.6905 36.63675,52.6905 L46.61325,52.6905 C47.94075,52.6905 49.01625,51.61275 49.01625,50.2875 L49.01625,40.302 C49.0185,38.97225 47.94075,37.899 46.61325,37.899 Z" id="Shape"></path>
                    <path d="M65.6595,37.899 L55.68075,37.899 C54.35325,37.899 53.28,38.97675 53.28,40.302 L53.28,50.2875 C53.28,51.615 54.3555,52.6905 55.68075,52.6905 L65.6595,52.6905 C66.987,52.6905 68.0625,51.61275 68.0625,50.2875 L68.0625,40.302 C68.0625,38.97225 66.987,37.899 65.6595,37.899 Z" id="Shape"></path>
                    <path d="M27.56925,57.49875 L17.5905,57.49875 C16.263,57.49875 15.1875,58.57425 15.1875,59.8995 L15.1875,69.885 C15.1875,71.2125 16.26525,72.28575 17.5905,72.28575 L27.56925,72.28575 C28.89675,72.28575 29.97225,71.21025 29.97225,69.885 L29.97225,59.8995 C29.9745,58.56975 28.90125,57.49875 27.56925,57.49875 Z" id="Shape"></path>
                    <path d="M46.61325,57.49875 L36.63675,57.49875 C35.30925,57.49875 34.23375,58.57425 34.23375,59.8995 L34.23375,69.885 C34.23375,71.2125 35.30925,72.28575 36.63675,72.28575 L46.61325,72.28575 C47.94075,72.28575 49.01625,71.21025 49.01625,69.885 L49.01625,59.8995 C49.0185,58.56975 47.94075,57.49875 46.61325,57.49875 Z" id="Shape"></path>
                    <path d="M27.56925,77.0985 L17.5905,77.0985 C16.263,77.0985 15.1875,78.174 15.1875,79.497 L15.1875,89.4825 C15.1875,90.8145 16.26525,91.8855 17.5905,91.8855 L27.56925,91.8855 C28.89675,91.8855 29.97225,90.80775 29.97225,89.4825 L29.97225,79.497 C29.9745,78.1695 28.90125,77.0985 27.56925,77.0985 Z" id="Shape"></path>
                    <path d="M46.61325,77.0985 L36.63675,77.0985 C35.30925,77.0985 34.23375,78.174 34.23375,79.497 L34.23375,89.4825 C34.23375,90.8145 35.30925,91.8855 36.63675,91.8855 L46.61325,91.8855 C47.94075,91.8855 49.01625,90.80775 49.01625,89.4825 L49.01625,79.497 C49.0185,78.1695 47.94075,77.0985 46.61325,77.0985 Z" id="Shape"></path>
                    <path d="M65.6595,57.49875 L55.68075,57.49875 C54.35325,57.49875 53.28,58.57425 53.28,59.8995 L53.28,89.4825 C53.28,90.8145 54.3555,91.8855 55.68075,91.8855 L65.6595,91.8855 C66.987,91.8855 68.0625,90.80775 68.0625,89.4825 L68.0625,59.8995 C68.0625,58.56975 66.987,57.49875 65.6595,57.49875 Z" id="Shape"></path>
                </g>
                <text id="+" font-family="AvenirNext-Bold, Avenir Next" font-size="72" font-weight="bold" fill="#141420">
                    <tspan x="62.024" y="72">+</tspan>
                </text>
            </g>
        </g>
    </g>
</svg>