<?xml version="1.0" encoding="UTF-8"?>
<svg width="32px" height="41px" viewBox="0 0 32 41" version="1.1" xmlns="http://www.w3.org/2000/svg" xmlns:xlink="http://www.w3.org/1999/xlink">
    <!-- Generator: Sketch 50.2 (55047) - http://www.bohemiancoding.com/sketch -->
    <title>calculator</title>
    <desc>Created with Sketch.</desc>
    <defs></defs>
    <g id="Page-1" stroke="none" stroke-width="1" fill="none" fill-rule="evenodd">
        <g id="Traffic---History" transform="translate(-1842.000000, -465.000000)" fill="#FFFFFF" fill-rule="nonzero">
            <g id="Panel-Left" transform="translate(1508.000000, 177.000000)">
                <g id="Second">
                    <g id="first" transform="translate(125.000000, 221.000000)">
                        <g id="Item-1">
                            <g id="calculator" transform="translate(209.000000, 67.000000)">
                                <path d="M29.8585946,0 L2.14313514,0 C1.12259459,0 0.295783784,0.827675676 0.295783784,1.84821622 L0.295783784,38.8012973 C0.295783784,39.8218378 1.12345946,40.6495135 2.14313514,40.6495135 L29.8585946,40.6495135 C30.8791351,40.6495135 31.7059459,39.8218378 31.7059459,38.8012973 L31.7059459,1.84821622 C31.7059459,0.827675676 30.8791351,0 29.8585946,0 Z M28.0103784,3.6947027 L28.0103784,9.23762162 L3.99048649,9.23762162 L3.99048649,3.6947027 L28.0103784,3.6947027 Z M3.99048649,36.9548108 L3.99048649,12.9331892 L28.0103784,12.9331892 L28.0103784,36.9522162 L3.99048649,36.9522162 L3.99048649,36.9548108 Z" id="Shape"></path>
                                <path d="M10.5971892,14.5677838 L6.76151351,14.5677838 C6.25124324,14.5677838 5.83783784,14.9820541 5.83783784,15.4914595 L5.83783784,19.3297297 C5.83783784,19.84 6.25210811,20.2534054 6.76151351,20.2534054 L10.5971892,20.2534054 C11.1074595,20.2534054 11.5208649,19.8391351 11.5208649,19.3297297 L11.5208649,15.4914595 C11.5217297,14.9803243 11.1091892,14.5677838 10.5971892,14.5677838 Z" id="Shape"></path>
                                <path d="M17.9174054,14.5677838 L14.0825946,14.5677838 C13.5723243,14.5677838 13.1589189,14.9820541 13.1589189,15.4914595 L13.1589189,19.3297297 C13.1589189,19.84 13.5723243,20.2534054 14.0825946,20.2534054 L17.9174054,20.2534054 C18.4276757,20.2534054 18.8410811,19.8391351 18.8410811,19.3297297 L18.8410811,15.4914595 C18.8419459,14.9803243 18.4276757,14.5677838 17.9174054,14.5677838 Z" id="Shape"></path>
                                <path d="M25.2384865,14.5677838 L21.4028108,14.5677838 C20.8925405,14.5677838 20.48,14.9820541 20.48,15.4914595 L20.48,19.3297297 C20.48,19.84 20.8934054,20.2534054 21.4028108,20.2534054 L25.2384865,20.2534054 C25.7487568,20.2534054 26.1621622,19.8391351 26.1621622,19.3297297 L26.1621622,15.4914595 C26.1621622,14.9803243 25.7487568,14.5677838 25.2384865,14.5677838 Z" id="Shape"></path>
                                <path d="M10.5971892,22.1016216 L6.76151351,22.1016216 C6.25124324,22.1016216 5.83783784,22.515027 5.83783784,23.0244324 L5.83783784,26.8627027 C5.83783784,27.372973 6.25210811,27.7855135 6.76151351,27.7855135 L10.5971892,27.7855135 C11.1074595,27.7855135 11.5208649,27.3721081 11.5208649,26.8627027 L11.5208649,23.0244324 C11.5217297,22.5132973 11.1091892,22.1016216 10.5971892,22.1016216 Z" id="Shape"></path>
                                <path d="M17.9174054,22.1016216 L14.0825946,22.1016216 C13.5723243,22.1016216 13.1589189,22.515027 13.1589189,23.0244324 L13.1589189,26.8627027 C13.1589189,27.372973 13.5723243,27.7855135 14.0825946,27.7855135 L17.9174054,27.7855135 C18.4276757,27.7855135 18.8410811,27.3721081 18.8410811,26.8627027 L18.8410811,23.0244324 C18.8419459,22.5132973 18.4276757,22.1016216 17.9174054,22.1016216 Z" id="Shape"></path>
                                <path d="M10.5971892,29.6354595 L6.76151351,29.6354595 C6.25124324,29.6354595 5.83783784,30.0488649 5.83783784,30.5574054 L5.83783784,34.3956757 C5.83783784,34.9076757 6.25210811,35.3193514 6.76151351,35.3193514 L10.5971892,35.3193514 C11.1074595,35.3193514 11.5208649,34.9050811 11.5208649,34.3956757 L11.5208649,30.5574054 C11.5217297,30.0471351 11.1091892,29.6354595 10.5971892,29.6354595 Z" id="Shape"></path>
                                <path d="M17.9174054,29.6354595 L14.0825946,29.6354595 C13.5723243,29.6354595 13.1589189,30.0488649 13.1589189,30.5574054 L13.1589189,34.3956757 C13.1589189,34.9076757 13.5723243,35.3193514 14.0825946,35.3193514 L17.9174054,35.3193514 C18.4276757,35.3193514 18.8410811,34.9050811 18.8410811,34.3956757 L18.8410811,30.5574054 C18.8419459,30.0471351 18.4276757,29.6354595 17.9174054,29.6354595 Z" id="Shape"></path>
                                <path d="M25.2384865,22.1016216 L21.4028108,22.1016216 C20.8925405,22.1016216 20.48,22.515027 20.48,23.0244324 L20.48,34.3956757 C20.48,34.9076757 20.8934054,35.3193514 21.4028108,35.3193514 L25.2384865,35.3193514 C25.7487568,35.3193514 26.1621622,34.9050811 26.1621622,34.3956757 L26.1621622,23.0244324 C26.1621622,22.5132973 25.7487568,22.1016216 25.2384865,22.1016216 Z" id="Shape"></path>
                            </g>
                        </g>
                    </g>
                </g>
            </g>
        </g>
    </g>
</svg>