<?xml version="1.0" encoding="UTF-8"?>
<svg width="128px" height="128px" viewBox="0 0 128 128" version="1.1" xmlns="http://www.w3.org/2000/svg" xmlns:xlink="http://www.w3.org/1999/xlink">
    <!-- Generator: Sketch 50.2 (55047) - http://www.bohemiancoding.com/sketch -->
    <title>Car Entrance</title>
    <desc>Created with Sketch.</desc>
    <defs></defs>
    <g id="Page-1" stroke="none" stroke-width="1" fill="none" fill-rule="evenodd">
        <g id="Traffic---History" transform="translate(-148.000000, -172.000000)">
            <g id="Group" transform="translate(89.000000, 80.000000)">
                <g id="Group-10" transform="translate(29.000000, 92.000000)">
                    <g id="automobile">
                        <g id="Car-Entrance" transform="translate(30.000000, 0.000000)">
                            <circle id="Oval-2" fill="#59D446" cx="64" cy="64" r="64"></circle>
                            <g id="Group-5" transform="translate(16.000000, 45.000000)" fill-rule="nonzero">
                                <path d="M91.8452398,16.0211462 C88.7337544,14.1047018 78.6975439,11.6543626 64.6134269,11.6543626 L57.1737076,2.97506433 C55.6045848,1.14451462 53.3136842,0.0907602339 50.9026433,0.0907602339 L28.633076,0.0907602339 C26.2669474,0.0907602339 23.9790409,0.937169591 22.1825497,2.47691228 L13.4033216,10.0023392 L4.03929825,11.3399766 C2.70952047,11.5299181 1.62732164,12.5060117 1.30152047,13.8092164 L0.188070175,18.2618947 L24.9674854,29.8253099 L94.348538,29.8253099 L94.348538,20.4867368 C94.3481637,18.6604912 93.4001404,16.9790877 91.8452398,16.0211462 Z" id="Shape" fill="#FFFFFF"></path>
                                <path d="M94.3481637,21.5655673 C94.3481637,18.2617076 89.3924678,14.957848 66.2654503,14.957848 L1.8397193,14.957848 C0.927438596,14.957848 0.187883041,15.6975906 0.187883041,16.6096842 L0.187883041,26.5212632 L31.5750175,31.4769591 L94.3483509,31.4769591 L94.3483509,21.5655673 L94.3481637,21.5655673 Z" id="Shape" fill="#FFFFFF"></path>
                                <path d="M94.3481637,28.1732865 L16.8877661,28.1732865 L2.1977076,24.9090994 C1.31536842,24.7154152 0.424795322,25.2712047 0.226245614,26.1632749 C0.029380117,27.053848 0.59097076,27.9361871 1.48135673,28.1338012 L16.3486316,31.4376608 C16.4663392,31.4642339 16.585731,31.4771462 16.7066199,31.4771462 L94.3476023,31.4771462 C95.2606316,31.4771462 95.9996257,30.7374035 95.9996257,29.8253099 C95.9998129,28.9130292 95.261193,28.1732865 94.3481637,28.1732865 Z" id="Shape" fill="#FFFFFF"></path>
                                <circle id="Oval" fill="#EDEDEE" cx="79.4797661" cy="28.1729123" r="8.25955556"></circle>
                                <path d="M79.4807018,38.0848655 C74.0150643,38.0848655 69.5691228,33.638924 69.5691228,28.1732865 C69.5691228,22.7076491 74.0150643,18.2617076 79.4807018,18.2617076 C84.9463392,18.2617076 89.3922807,22.7076491 89.3922807,28.1732865 C89.3922807,33.638924 84.9463392,38.0848655 79.4807018,38.0848655 Z M79.4807018,21.5655673 C75.8366316,21.5655673 72.8729825,24.5292164 72.8729825,28.1732865 C72.8729825,31.8173567 75.8366316,34.7810058 79.4807018,34.7810058 C83.1247719,34.7810058 86.0884211,31.8175439 86.0884211,28.1732865 C86.0884211,24.5292164 83.1249591,21.5655673 79.4807018,21.5655673 Z" id="Shape" fill="#504B5A"></path>
                                <circle id="Oval" fill="#DCDBDE" cx="79.4797661" cy="28.1729123" r="3.30385965"></circle>
                                <circle id="Oval" fill="#EDEDEE" cx="16.7064327" cy="28.1729123" r="8.25955556"></circle>
                                <path d="M16.7071813,38.0848655 C11.2415439,38.0848655 6.79560234,33.638924 6.79560234,28.1732865 C6.79560234,22.7076491 11.2415439,18.2617076 16.7071813,18.2617076 C22.1728187,18.2617076 26.6187602,22.7076491 26.6187602,28.1732865 C26.6185731,33.638924 22.1726316,38.0848655 16.7071813,38.0848655 Z M16.7071813,21.5655673 C13.0631111,21.5655673 10.099462,24.5292164 10.099462,28.1732865 C10.099462,31.8173567 13.0631111,34.7810058 16.7071813,34.7810058 C20.3512515,34.7810058 23.3149006,31.8175439 23.3149006,28.1732865 C23.3149006,24.5292164 20.3512515,21.5655673 16.7071813,21.5655673 Z" id="Shape" fill="#504B5A"></path>
                                <circle id="Oval" fill="#DCDBDE" cx="16.7064327" cy="28.1729123" r="3.30385965"></circle>
                                <g id="Group" transform="translate(29.754386, 21.520468)">
                                    <path d="M36.5108772,3.34895906 L1.82044444,3.34895906 C0.908163743,3.34895906 0.168608187,2.60921637 0.168608187,1.69712281 C0.168608187,0.784842105 0.908350877,0.0452865497 1.82044444,0.0452865497 L36.5108772,0.0452865497 C37.4231579,0.0452865497 38.1627135,0.784842105 38.1627135,1.69712281 C38.1629006,2.60959064 37.4231579,3.34895906 36.5108772,3.34895906 Z" id="Shape" fill="#515151"></path>
                                    <path d="M64.5937778,3.34895906 L62.9419415,3.34895906 C62.0296608,3.34895906 61.2899181,2.60921637 61.2899181,1.69712281 C61.2899181,0.784842105 62.0296608,0.0452865497 62.9419415,0.0452865497 L64.5937778,0.0452865497 C65.5060585,0.0452865497 66.245614,0.784842105 66.245614,1.69712281 C66.245614,2.60959064 65.5060585,3.34895906 64.5937778,3.34895906 Z" id="Shape" fill="#FF7D5A"></path>
                                </g>
                                <path d="M13.4033216,10.002152 L22.1825497,2.47672515 C23.9790409,0.936982456 26.2669474,0.0905730994 28.633076,0.0905730994 L50.9026433,0.0905730994 C53.3138713,0.0905730994 55.6043977,1.14414035 57.1737076,2.97487719 L64.6134269,11.6541754 L25.5019415,11.6541754 C24.0460351,11.6541754 22.5927485,11.533848 21.1564912,11.2945029 L13.4033216,10.002152 Z" id="Shape" fill="#FFFFFF"></path>
                                <path d="M49.0842573,2.93127485 C48.4566082,2.17805848 47.5267368,1.74259649 46.546152,1.74259649 L31.2901988,1.74259649 C30.4140351,1.74259649 29.573614,2.09066667 28.9541988,2.71026901 L23.9985029,7.66596491 C23.5604211,8.10404678 23.314152,8.69819883 23.314152,9.31780117 C23.314152,10.6079064 24.3600468,11.6539883 25.6503392,11.6539883 L54.5901287,11.6539883 C55.290386,11.6539883 55.6728889,10.8371462 55.2247018,10.2991345 L49.0842573,2.93127485 Z" id="Shape" fill="#625D6B"></path>
                                <polygon id="Shape" fill="#504B5A" points="34.8783158 11.6539883 29.9224327 11.6539883 33.2262924 1.74259649 36.530152 1.74259649"></polygon>
                                <path d="M92.5748772,16.6098713 L91.0439298,16.6098713 C90.1316491,16.6098713 89.3920936,17.3494269 89.3920936,18.2617076 C89.3920936,19.1739883 90.1318363,19.9135439 91.0439298,19.9135439 L94.2740585,19.9135439 C94.1307135,18.6288655 93.5324444,17.4665731 92.5748772,16.6098713 Z" id="Shape" fill="#888888"></path>
                                <path d="M57.1737076,2.97487719 C56.7779181,2.51302924 56.335345,2.1011462 55.8570292,1.74259649 L53.1611696,1.74259649 C52.4609123,1.74259649 52.0784094,2.55925146 52.5265965,3.09745029 L58.6670409,10.4656842 C59.2946901,11.2189006 60.2245614,11.6543626 61.2049591,11.6543626 L64.6132398,11.6543626 L57.1737076,2.97487719 Z" id="Shape" fill="#625D6B"></path>
                                <path d="M0.187883041,16.6098713 L0.187883041,18.2617076 L3.49174269,18.2617076 C4.40402339,18.2617076 5.14357895,17.522152 5.14357895,16.6098713 C5.14357895,15.6975906 4.40383626,14.9580351 3.49174269,14.9580351 L1.8397193,14.9580351 C0.927251462,14.957848 0.187883041,15.6975906 0.187883041,16.6098713 Z" id="Shape" fill="#FF6464"></path>
                            </g>
                        </g>
                    </g>
                </g>
            </g>
        </g>
    </g>
</svg>