<?xml version="1.0" encoding="UTF-8"?>
<svg width="32px" height="32px" viewBox="0 0 32 32" version="1.1" xmlns="http://www.w3.org/2000/svg" xmlns:xlink="http://www.w3.org/1999/xlink">
    <!-- Generator: Sketch 50.2 (55047) - http://www.bohemiancoding.com/sketch -->
    <title>department</title>
    <desc>Created with Sketch.</desc>
    <defs></defs>
    <g id="Page-1" stroke="none" stroke-width="1" fill="none" fill-rule="evenodd">
        <g id="Traffic---History" transform="translate(-1842.000000, -398.000000)" fill="#FFFFFF" fill-rule="nonzero">
            <g id="Panel-Left" transform="translate(1508.000000, 177.000000)">
                <g id="Second">
                    <g id="first" transform="translate(125.000000, 221.000000)">
                        <g id="Item-1">
                            <g id="department" transform="translate(209.000000, 0.000000)">
                                <path d="M28.7997554,22.6798847 L28.7997554,17.5999745 C28.7997554,15.8327214 27.367166,14.3999236 25.6001223,14.3999236 L17.6000204,14.3999236 L17.6000204,9.32072672 C19.4634668,8.66098753 20.8000611,6.88863908 20.8000611,4.79936309 C20.8000611,2.14899288 18.6498522,0 15.9998981,0 C13.3495363,0 11.1999389,2.14889098 11.1999389,4.79936309 C11.1999389,6.88863908 12.5366351,8.66098753 14.3997758,9.32072672 L14.3997758,14.3999236 L6.39997962,14.3999236 C4.6329359,14.3999236 3.20014267,15.8327214 3.20014267,17.5999745 L3.20014267,22.6798847 C1.33669622,23.3381972 0,25.1109533 0,27.1998217 C0,29.8497842 2.14949557,32 4.79985733,32 C7.4502191,32 9.59991848,29.8497842 9.59991848,27.1998217 C9.59991848,25.1109533 8.26312035,23.3380953 6.39987771,22.6798847 L6.39987771,17.5999745 L14.3997758,17.5999745 L14.3997758,22.6798847 C12.5365332,23.3381972 11.1999389,25.1109533 11.1999389,27.1998217 C11.1999389,29.8497842 13.3494344,32 15.9998981,32 C18.6498522,32 20.8000611,29.8497842 20.8000611,27.1998217 C20.8000611,25.1109533 19.4634668,23.3380953 17.6000204,22.6798847 L17.6000204,17.5999745 L25.6001223,17.5999745 L25.6001223,22.6798847 C23.7367777,23.3381972 22.4001834,25.1109533 22.4001834,27.1998217 C22.4001834,29.8497842 24.5498828,32 27.199837,32 C29.8503006,32 32,29.8497842 32,27.1998217 C31.9997962,25.1109533 30.6632019,23.3381972 28.7997554,22.6798847 Z M4.79995924,28.7998471 C3.916845,28.7998471 3.20014267,28.0827349 3.20014267,27.1998217 C3.20014267,26.3155837 3.916845,25.6002038 4.79995924,25.6002038 C5.68327729,25.6002038 6.39997962,26.3156856 6.39997962,27.1998217 C6.39997962,28.0827349 5.68327729,28.7998471 4.79995924,28.7998471 Z M15.9998981,28.7998471 C15.1167839,28.7998471 14.3998777,28.0827349 14.3998777,27.1998217 C14.3998777,26.3155837 15.1167839,25.6002038 15.9998981,25.6002038 C16.8828085,25.6002038 17.5999185,26.3156856 17.5999185,27.1998217 C17.5999185,28.0827349 16.8828085,28.7998471 15.9998981,28.7998471 Z M15.9998981,6.4 C15.1167839,6.4 14.3998777,5.68329538 14.3998777,4.79936309 C14.3998777,3.91522698 15.1167839,3.20015286 15.9998981,3.20015286 C16.8828085,3.20015286 17.5999185,3.91604223 17.5999185,4.79936309 C17.5999185,5.68248014 16.8828085,6.4 15.9998981,6.4 Z M27.199735,28.7998471 C26.3172322,28.7998471 25.6001223,28.0827349 25.6001223,27.1998217 C25.6001223,26.3155837 26.3172322,25.6002038 27.199735,25.6002038 C28.0826455,25.6002038 28.7997554,26.3156856 28.7997554,27.1998217 C28.7997554,28.0827349 28.0826455,28.7998471 27.199735,28.7998471 Z" id="Shape"></path>
                            </g>
                        </g>
                    </g>
                </g>
            </g>
        </g>
    </g>
</svg>