<?xml version="1.0" encoding="UTF-8"?>
<svg width="32px" height="37px" viewBox="0 0 32 37" version="1.1" xmlns="http://www.w3.org/2000/svg" xmlns:xlink="http://www.w3.org/1999/xlink">
    <!-- Generator: Sketch 50.2 (55047) - http://www.bohemiancoding.com/sketch -->
    <title>Employees</title>
    <desc>Created with Sketch.</desc>
    <defs></defs>
    <g id="Page-1" stroke="none" stroke-width="1" fill="none" fill-rule="evenodd">
        <g id="Traffic---History" transform="translate(-1842.000000, -537.000000)" fill="#FFFFFF" fill-rule="nonzero">
            <g id="Panel-Left" transform="translate(1508.000000, 177.000000)">
                <g id="Second">
                    <g id="first" transform="translate(125.000000, 221.000000)">
                        <g id="Item-1">
                            <g id="Employees" transform="translate(209.000000, 139.000000)">
                                <g id="standing-up-man-" transform="translate(10.666667, 12.549020)">
                                    <circle id="Oval" cx="5.19377778" cy="2.00311111" r="2.00311111"></circle>
                                    <path d="M5.89155556,4.96133333 C5.39244444,4.86 4.84977778,4.86444444 4.35955556,4.98 C1.02933333,5.37022222 -0.052,9.22488889 0.253333333,12.164 C0.385777778,13.4346667 2.38888889,13.448 2.25511111,12.164 C2.144,11.0928889 2.19155556,9.47644444 2.76088889,8.32755556 C2.76088889,9.724 2.76088889,11.1204444 2.76088889,12.5164444 C2.76088889,12.5657778 2.76577778,12.612 2.768,12.6595556 C2.76666667,12.6822222 2.76133333,12.7013333 2.76133333,12.7244444 C2.76133333,16.0484444 2.75555556,19.3711111 2.61822222,22.6924444 C2.55733333,24.1688889 4.84666667,24.1631111 4.90711111,22.6924444 C5.01466667,20.0893333 5.04177778,17.4848889 5.048,14.88 C5.15644444,14.8871111 5.26488889,14.8871111 5.37333333,14.8808889 C5.38,17.4857778 5.40622222,20.0902222 5.51288889,22.6924444 C5.57377778,24.1631111 7.86311111,24.1688889 7.80177778,22.6924444 C7.66444444,19.3711111 7.65955556,16.0484444 7.65955556,12.7244444 C7.65955556,12.6213333 7.64577778,12.5275556 7.62488889,12.4373333 C7.62177778,10.9942222 7.56666667,9.54977778 7.58355556,8.10755556 C8.26533333,9.26177778 8.32755556,11.0222222 8.20933333,12.1631111 C8.07511111,13.4462222 10.0786667,13.4333333 10.2111111,12.1631111 C10.5235556,9.16311111 9.39022222,5.20844444 5.89155556,4.96133333 Z" id="Shape"></path>
                                </g>
                                <g id="standing-up-man-" transform="translate(0.000000, 12.549020)">
                                    <circle id="Oval" cx="5.19377778" cy="2.00311111" r="2.00311111"></circle>
                                    <path d="M5.89155556,4.96133333 C5.39244444,4.86 4.84977778,4.86444444 4.35955556,4.98 C1.02933333,5.37022222 -0.052,9.22488889 0.253333333,12.164 C0.385777778,13.4346667 2.38888889,13.448 2.25511111,12.164 C2.144,11.0928889 2.19155556,9.47644444 2.76088889,8.32755556 C2.76088889,9.724 2.76088889,11.1204444 2.76088889,12.5164444 C2.76088889,12.5657778 2.76577778,12.612 2.768,12.6595556 C2.76666667,12.6822222 2.76133333,12.7013333 2.76133333,12.7244444 C2.76133333,16.0484444 2.75555556,19.3711111 2.61822222,22.6924444 C2.55733333,24.1688889 4.84666667,24.1631111 4.90711111,22.6924444 C5.01466667,20.0893333 5.04177778,17.4848889 5.048,14.88 C5.15644444,14.8871111 5.26488889,14.8871111 5.37333333,14.8808889 C5.38,17.4857778 5.40622222,20.0902222 5.51288889,22.6924444 C5.57377778,24.1631111 7.86311111,24.1688889 7.80177778,22.6924444 C7.66444444,19.3711111 7.65955556,16.0484444 7.65955556,12.7244444 C7.65955556,12.6213333 7.64577778,12.5275556 7.62488889,12.4373333 C7.62177778,10.9942222 7.56666667,9.54977778 7.58355556,8.10755556 C8.26533333,9.26177778 8.32755556,11.0222222 8.20933333,12.1631111 C8.07511111,13.4462222 10.0786667,13.4333333 10.2111111,12.1631111 C10.5235556,9.16311111 9.39022222,5.20844444 5.89155556,4.96133333 Z" id="Shape"></path>
                                </g>
                                <g id="standing-up-man-" transform="translate(8.156863, 0.000000)">
                                    <circle id="Oval" cx="18.3702484" cy="14.5521307" r="2.00311111"></circle>
                                    <circle id="Oval" cx="13.3506405" cy="8.27762092" r="2.00311111"></circle>
                                    <circle id="Oval" cx="2.05652288" cy="8.27762092" r="2.00311111"></circle>
                                    <circle id="Oval" cx="7.7035817" cy="2.00311111" r="2.00311111"></circle>
                                    <path d="M19.0680261,17.5103529 C18.568915,17.4090196 18.0262484,17.4134641 17.5360261,17.5290196 C14.2058039,17.9192418 13.1244706,21.7739085 13.4298039,24.7130196 C13.5622484,25.9836863 15.5653595,25.9970196 15.4315817,24.7130196 C15.3204706,23.6419085 15.3680261,22.0254641 15.9373595,20.8765752 C15.9373595,22.2730196 15.9373595,23.6694641 15.9373595,25.0654641 C15.9373595,25.1147974 15.9422484,25.1610196 15.9444706,25.2085752 C15.9431373,25.2312418 15.9378039,25.2503529 15.9378039,25.2734641 C15.9378039,28.5974641 15.9320261,31.9201307 15.7946928,35.2414641 C15.7338039,36.7179085 18.0231373,36.7121307 18.0835817,35.2414641 C18.1911373,32.6383529 18.2182484,30.0339085 18.2244706,27.4290196 C18.332915,27.4361307 18.4413595,27.4361307 18.5498039,27.4299085 C18.5564706,30.0347974 18.5826928,32.6392418 18.6893595,35.2414641 C18.7502484,36.7121307 21.0395817,36.7179085 20.9782484,35.2414641 C20.840915,31.9201307 20.8360261,28.5974641 20.8360261,25.2734641 C20.8360261,25.1703529 20.8222484,25.0765752 20.8013595,24.9863529 C20.7982484,23.5432418 20.7431373,22.0987974 20.7600261,20.6565752 C21.4418039,21.8107974 21.5040261,23.5712418 21.3858039,24.7121307 C21.2515817,25.9952418 23.2551373,25.9823529 23.3875817,24.7121307 C23.7000261,21.7121307 22.5666928,17.7574641 19.0680261,17.5103529 Z" id="Shape"></path>
                                </g>
                            </g>
                        </g>
                    </g>
                </g>
            </g>
        </g>
    </g>
</svg>