<?xml version="1.0" encoding="UTF-8"?>
<svg width="128px" height="128px" viewBox="0 0 128 128" version="1.1" xmlns="http://www.w3.org/2000/svg" xmlns:xlink="http://www.w3.org/1999/xlink">
    <!-- Generator: Sketch 50.2 (55047) - http://www.bohemiancoding.com/sketch -->
    <title>Employee</title>
    <desc>Created with Sketch.</desc>
    <defs></defs>
    <g id="Page-1" stroke="none" stroke-width="1" fill="none" fill-rule="evenodd">
        <g id="Traffic" transform="translate(-951.000000, -674.000000)" fill-rule="nonzero">
            <g id="Group" transform="translate(85.000000, 540.000000)">
                <g id="Group-10" transform="translate(71.000000, 134.000000)">
                    <g id="employee" transform="translate(765.000000, 0.000000)">
                        <g id="Employee" transform="translate(30.000000, 0.000000)">
                            <circle id="Oval" fill="#34354F" cx="64" cy="64" r="64"></circle>
                            <g id="Group-8" transform="translate(32.000000, 17.000000)">
                                <path d="M58.1186207,53.8688736 L48.7058391,50.1657011 L15.2937931,50.1657011 L5.88101149,53.8688736 C2.27181609,55.2888276 -0.0430344828,58.8377011 0.112183908,62.7131954 L1.25498851,91.2452414 C1.32009195,92.873931 2.65967816,94.1609195 4.28983908,94.1609195 L59.7097931,94.1609195 C61.339954,94.1609195 62.6795402,92.873931 62.7448276,91.2450575 L63.8876322,62.7130115 C64.0426667,58.8377011 61.7278161,55.2886437 58.1186207,53.8688736 Z" id="Shape" fill="#DBD9DC"></path>
                                <polygon id="Shape" fill="#5D5360" points="29.782069 60.7490575 27.8390805 94.1609195 36.1605517 94.1609195 34.2175632 60.7490575"></polygon>
                                <path d="M33.5185287,62.2677701 L30.4811034,62.2677701 C29.6422989,62.2677701 28.9623908,61.5878621 28.9623908,60.7490575 L28.9623908,56.1929195 L35.0372414,56.1929195 L35.0372414,60.7490575 C35.0372414,61.5878621 34.3573333,62.2677701 33.5185287,62.2677701 Z" id="Shape" fill="#4B3F4E"></path>
                                <rect id="Rectangle-path" fill="#FAD7A5" x="21.368092" y="37.9678161" width="21.2616092" height="18.2252874"></rect>
                                <path d="M21.3688276,43.6393563 C24.3806897,45.8083678 28.0586667,47.0804598 31.9998161,47.0804598 C35.9409655,47.0804598 39.6189425,45.8083678 42.6308046,43.6393563 L42.6308046,37.9681839 L21.3688276,37.9681839 L21.3688276,43.6393563 Z" id="Shape" fill="#F0C891"></path>
                                <path d="M31.9998161,0.047816092 C24.4172874,0.457563218 20.1031724,4.60395402 20.1031724,4.60395402 C20.1031724,4.60395402 13.7750805,4.60395402 13.7750805,12.1975172 C13.7750805,18.2723678 15.2937931,24.2995862 15.2937931,24.2995862 L50.2243678,24.2995862 C53.261977,7.59374713 46.048,-0.71154023 31.9998161,0.047816092 Z" id="Shape" fill="#AF876E"></path>
                                <path d="M22.8875402,18.0323678 C17.3083218,11.0569195 20.1031724,4.60395402 20.1031724,4.60395402 C20.1031724,4.60395402 13.7750805,4.60395402 13.7750805,12.1975172 C13.7750805,18.2723678 15.2937931,24.2995862 15.2937931,24.2995862 L22.8873563,24.2995862 L22.8873563,18.0323678 L22.8875402,18.0323678 Z" id="Shape" fill="#A07B64"></path>
                                <path d="M48.7058391,22.7808736 L47.1871264,22.7808736 L45.1858391,19.1286437 C44.8698851,18.551908 44.2118621,18.2565517 43.5648736,18.3749885 C33.5626667,20.2046897 26.9892414,17.8795402 24.4985747,16.715954 C23.846069,16.4110345 23.0692414,16.6114943 22.649931,17.1970575 C21.1130115,19.3436322 19.4170115,21.0355862 18.4,21.9718621 C17.8354023,22.4917701 17.1025287,22.7808736 16.3350805,22.7808736 L15.2422989,22.7808736 C15.2413793,22.7808736 15.2408276,22.7814253 15.239908,22.7814253 C15.0734713,22.7845517 14.9035402,22.802023 14.7302989,22.8354943 C13.2522299,23.1211034 12.2561839,24.534069 12.2561839,26.0395402 L12.2561839,27.140046 C12.2561839,28.5927356 13.1862069,29.9630345 14.6008276,30.2933333 C14.9195402,30.3678161 15.2296092,30.3887816 15.5264368,30.3652414 C16.2815632,30.3049195 16.9408736,30.8544368 17.0767816,31.5996322 C18.368,38.6758621 24.5502529,44.0430345 31.9996322,44.0430345 C39.4490115,44.0430345 45.6312644,38.676046 46.9224828,31.5996322 C47.0534253,30.882023 47.6730115,30.3593563 48.3926437,30.3744368 L48.7056552,30.3744368 C50.3830805,30.3744368 51.7430805,29.0144368 51.7430805,27.3370115 L51.7430805,25.8182989 C51.7432644,24.1408736 50.3832644,22.7808736 48.7058391,22.7808736 Z" id="Shape" fill="#FFE1B4"></path>
                                <path d="M22.8875402,28.855908 L22.8875402,16.9651494 C22.8047816,17.0381609 22.7166897,17.104 22.6501149,17.1970575 C21.1131954,19.3436322 19.4171954,21.0355862 18.4001839,21.9718621 C17.8355862,22.4917701 17.1027126,22.7808736 16.3352644,22.7808736 L15.2424828,22.7808736 C15.2415632,22.7808736 15.2410115,22.7814253 15.240092,22.7814253 C15.0736552,22.7845517 14.9037241,22.802023 14.7304828,22.8354943 C13.2524138,23.1211034 12.2563678,24.534069 12.2563678,26.0395402 L12.2563678,27.140046 C12.2563678,28.5927356 13.1863908,29.9630345 14.6010115,30.2933333 C14.9197241,30.3678161 15.2297931,30.3887816 15.5266207,30.3652414 C16.2817471,30.3049195 16.9410575,30.8544368 17.0769655,31.5996322 C18.3681839,38.6758621 24.5504368,44.0430345 31.9998161,44.0430345 C33.0322759,44.0430345 34.0369655,43.9302989 35.0111264,43.7338851 C28.0921379,42.3166897 22.8875402,36.194023 22.8875402,28.855908 Z" id="Shape" fill="#FAD7A5"></path>
                                <g id="Group" transform="translate(0.000000, 46.160920)" fill="#EDEBED">
                                    <path d="M31.9998161,10.0796322 L20.9193563,0.384183908 C20.3176092,-0.142344828 19.4107586,-0.112183908 18.8454253,0.453149425 L15.293977,4.0045977 L22.3510805,14.5903448 C23.4142529,16.1851954 25.6708046,16.4086437 27.0262069,15.0532414 L31.9998161,10.0796322 Z" id="Shape"></path>
                                    <path d="M31.9998161,10.0796322 L43.0802759,0.384183908 C43.682023,-0.142344828 44.5888736,-0.112183908 45.1542069,0.453149425 L48.7056552,4.0045977 L41.6485517,14.5903448 C40.5853793,16.1851954 38.3288276,16.4086437 36.9734253,15.0532414 L31.9998161,10.0796322 Z" id="Shape"></path>
                                    <path d="M8.06878161,18.0417471 L1.46133333,11.4342989 C0.539402299,12.9382989 0.0380689655,14.7041839 0.112183908,16.5522759 L1.25498851,45.0841379 C1.32009195,46.7130115 2.65967816,48 4.28983908,48 L10.7376552,48 L10.7376552,24.4849655 C10.7376552,22.0684138 9.77765517,19.7506207 8.06878161,18.0417471 Z" id="Shape"></path>
                                    <path d="M55.9310345,18.0417471 L62.5384828,11.4342989 C63.4604138,12.9382989 63.9617471,14.7041839 63.8876322,16.5522759 L62.7448276,45.0841379 C62.6795402,46.7130115 61.339954,48 59.7097931,48 L53.261977,48 L53.261977,24.4849655 C53.2621609,22.0684138 54.2221609,19.7506207 55.9310345,18.0417471 Z" id="Shape"></path>
                                    <path d="M16.8125057,28.2565517 L24.406069,28.2565517 C25.2448736,28.2565517 25.9247816,27.5766437 25.9247816,26.7378391 L25.9247816,25.2191264 C25.9247816,24.3803218 25.2448736,23.7004138 24.406069,23.7004138 L16.8125057,23.7004138 C15.9737011,23.7004138 15.2937931,24.3803218 15.2937931,25.2191264 L15.2937931,26.7378391 C15.2937931,27.5766437 15.9738851,28.2565517 16.8125057,28.2565517 Z" id="Shape"></path>
                                </g>
                            </g>
                        </g>
                    </g>
                </g>
            </g>
        </g>
    </g>
</svg>