<?xml version="1.0" encoding="UTF-8"?>
<svg width="128px" height="128px" viewBox="0 0 128 128" version="1.1" xmlns="http://www.w3.org/2000/svg" xmlns:xlink="http://www.w3.org/1999/xlink">
    <!-- Generator: Sketch 50.2 (55047) - http://www.bohemiancoding.com/sketch -->
    <title>Entrance Device</title>
    <desc>Created with Sketch.</desc>
    <defs></defs>
    <g id="Page-1" stroke="none" stroke-width="1" fill="none" fill-rule="evenodd">
        <g id="Traffic" transform="translate(-1224.000000, -674.000000)" fill-rule="nonzero">
            <g id="Group" transform="translate(85.000000, 540.000000)">
                <g id="Group-10" transform="translate(71.000000, 134.000000)">
                    <g id="door-key" transform="translate(1038.000000, 0.000000)">
                        <g id="Entrance-Device" transform="translate(30.000000, 0.000000)">
                            <circle id="Oval" fill="#626262" cx="64" cy="64" r="64"></circle>
                            <g id="Group-9" transform="translate(32.000000, 32.000000)">
                                <path d="M47.9064327,0 L15.9688109,0 C14.7924834,0 13.8395945,0.952888889 13.8395945,2.12921637 L13.8395945,61.746152 C13.8395945,62.9224795 14.7924834,63.8753684 15.9688109,63.8753684 L47.9064327,63.8753684 C49.0827602,63.8753684 50.0356491,62.9224795 50.0356491,61.746152 L50.0356491,2.12921637 C50.0356491,0.952888889 49.0827602,0 47.9064327,0 Z" id="Shape" fill="#FFFFFF"></path>
                                <circle id="Oval" fill="#9DD2FF" cx="31.9371228" cy="53.2289123" r="5.32297856"></circle>
                                <rect id="Rectangle-path" fill="#000000" x="30.8727018" y="52.164616" width="2.12859259" height="2.12859259"></rect>
                                <g id="Group" transform="translate(0.000000, 4.241715)" fill="#FCB641">
                                    <path d="M61.7460273,28.760577 L22.3563353,28.760577 C21.1800078,28.760577 20.2271189,29.7134659 20.2271189,30.8897934 L20.2271189,37.2773177 C20.2271189,38.4536452 21.1800078,39.4065341 22.3563353,39.4065341 L61.746152,39.4065341 C62.9224795,39.4065341 63.8753684,38.4536452 63.8753684,37.2773177 L63.8753684,30.8897934 C63.8752437,29.7133411 62.9223548,28.760577 61.7460273,28.760577 Z" id="Shape"></path>
                                    <path d="M35.131384,25.5668148 L0,25.5668148 L0,0.0167173489 L35.131384,0.0167173489 C36.3077115,0.0167173489 37.2606004,0.969606238 37.2606004,2.14593372 L37.2606004,23.4377232 C37.2606004,24.6139259 36.3077115,25.5668148 35.131384,25.5668148 Z" id="Shape"></path>
                                </g>
                                <path d="M31.9376218,43.6482495 L23.4208811,43.6482495 C21.6600702,43.6482495 20.2271189,42.2152982 20.2271189,40.4544873 L20.2271189,36.1961793 C20.2271189,34.4353684 21.6600702,33.0024172 23.4208811,33.0024172 L31.9376218,33.0024172 C32.5252242,33.0024172 33.0022924,33.4782378 33.0022924,34.0670877 L33.0022924,42.5838285 C33.0022924,43.1723041 32.5252242,43.6482495 31.9376218,43.6482495 Z M23.4208811,35.1315088 C22.8342768,35.1315088 22.3562105,35.6084522 22.3562105,36.1961793 L22.3562105,40.4544873 C22.3562105,41.0420897 22.834152,41.5191579 23.4208811,41.5191579 L30.873076,41.5191579 L30.873076,35.1316335 L23.4208811,35.1315088 Z" id="Shape" fill="#000000"></path>
                                <path d="M33.0022924,33.0022924 L22.3563353,33.0022924 C21.1800078,33.0022924 20.2271189,33.9551813 20.2271189,35.1315088 L20.2271189,41.5190331 C20.2271189,42.6953606 21.1800078,43.6482495 22.3563353,43.6482495 L33.0022924,43.6482495 L33.0022924,33.0022924 Z" id="Shape" fill="#FEF0D9"></path>
                                <path d="M20.2272437,24.4856764 L9.58128655,24.4856764 C8.40495906,24.4856764 7.45207018,23.5327875 7.45207018,22.35646 L7.45207018,11.7106277 C7.45207018,10.5343002 8.40495906,9.58141131 9.58128655,9.58141131 L20.2271189,9.58141131 C21.4034464,9.58141131 22.3563353,10.5343002 22.3563353,11.7106277 L22.3563353,22.35646 C22.3563353,23.5327875 21.4035712,24.4856764 20.2272437,24.4856764 Z" id="Shape" fill="#E65A45"></path>
                                <g id="Group" transform="translate(26.573099, 11.602339)" fill="#BD8931">
                                    <rect id="Rectangle-path" x="0.041294347" y="0.108413255" width="6.38702534" height="2.12859259"></rect>
                                    <rect id="Rectangle-path" x="0.041294347" y="4.366846" width="6.38702534" height="2.12859259"></rect>
                                    <rect id="Rectangle-path" x="0.041294347" y="8.625154" width="6.38702534" height="2.12859259"></rect>
                                </g>
                                <path d="M42.5834542,26.614768 L37.2604756,26.614768 L37.2604756,7.45219493 L42.5834542,7.45219493 C43.7597817,7.45219493 44.7126706,8.40508382 44.7126706,9.58141131 L44.7126706,24.4856764 C44.7126706,25.6618791 43.7597817,26.614768 42.5834542,26.614768 Z" id="Shape" fill="#9DD2FF"></path>
                                <g id="Group" transform="translate(19.087719, 52.148148)">
                                    <rect id="Rectangle-path" fill="#AD3030" x="0.0743547758" y="0.0164678363" width="3.19376218" height="2.12859259"></rect>
                                    <rect id="Rectangle-path" fill="#63AD30" x="22.4314386" y="0.0164678363" width="3.19376218" height="2.12859259"></rect>
                                </g>
                                <rect id="Rectangle-path" fill="#FCB641" x="25.5500975" y="37.2608499" width="2.12859259" height="2.12859259"></rect>
                                <polygon id="Shape" fill="#AD4434" points="17.0333567 12.7750487 17.0333567 15.9689357 12.7750487 15.9689357 12.7750487 12.7750487 10.6458324 12.7750487 10.6458324 21.2917895 12.7750487 21.2917895 12.7750487 18.098152 17.0333567 18.098152 17.0333567 21.2917895 19.1625731 21.2917895 19.1625731 12.7750487"></polygon>
                            </g>
                        </g>
                    </g>
                </g>
            </g>
        </g>
    </g>
</svg>