<?xml version="1.0" encoding="UTF-8"?>
<svg width="64px" height="82px" viewBox="0 0 64 82" version="1.1" xmlns="http://www.w3.org/2000/svg" xmlns:xlink="http://www.w3.org/1999/xlink">
    <!-- Generator: Sketch 50.2 (55047) - http://www.bohemiancoding.com/sketch -->
    <title>fingerprint_table</title>
    <desc>Created with Sketch.</desc>
    <defs></defs>
    <g id="Page-1" stroke="none" stroke-width="1" fill="none" fill-rule="evenodd">
        <g id="Traffic---History" transform="translate(-653.000000, -641.000000)" fill="#000000" fill-rule="nonzero">
            <g id="Additions" transform="translate(85.000000, 481.000000)">
                <g id="Grey-Bg" transform="translate(0.000000, 138.000000)">
                    <g id="fingerprint_table" transform="translate(568.000000, 22.000000)">
                        <path d="M37,50.1101345 L37,44.2152466 C37,41.8909417 35.1396503,40 32.8529483,40 C30.5662464,40 28.7058966,41.8909417 28.7058966,44.2152466 L28.7058966,49.5375785 C28.7058966,55.9513901 26.3812536,62.1092377 22.1599079,66.8765919 L16.3397414,73.4498655 C15.8507423,74.0021525 15.8948598,74.8527354 16.4382118,75.3499552 C16.9813874,75.8469955 17.8182095,75.8021525 18.3073851,75.2498655 L24.1275516,68.6765919 C28.7868965,63.4141704 31.3529509,56.6172197 31.3529509,49.5375785 L31.3529509,44.2152466 C31.3529509,43.3745291 32.0258321,42.690583 32.8529483,42.690583 C33.6800645,42.690583 34.3529457,43.3745291 34.3529457,44.2152466 L34.3529457,50.1101345 C34.3529457,58.0030493 31.4763036,65.5660987 26.2527832,71.4064574 L20.57944,77.7497758 C20.0877938,78.2993722 20.1276761,79.1504933 20.6685575,79.6502242 C20.9221453,79.8846637 21.2406742,80 21.5583207,80 C21.9183201,80 22.2769077,79.8516592 22.5380837,79.5596413 L28.2112504,73.2163229 C33.8787701,66.8796413 37,58.673722 37,50.1101345 Z" id="Shape"></path>
                        <path d="M42,43.8302583 C42,38.4098007 37.6308155,34 32.2602828,34 C26.8897501,34 22.5205656,38.4098007 22.5205656,43.8302583 L22.5205656,49.0858155 C22.5205656,54.0167085 20.7207361,58.7506421 17.4525783,62.4156458 L13.3378549,67.0301993 C12.851571,67.5755572 12.8954436,68.4154686 13.4357786,68.9064502 C13.9761135,69.3972546 14.8081135,69.3526199 15.2945729,68.8076162 L19.4092963,64.1930627 C23.1131967,60.0393801 25.1530971,54.6741845 25.1530971,49.0858155 L25.1530971,43.8302583 C25.1530971,39.8747749 28.3414067,36.6568266 32.2604583,36.6568266 C36.1795099,36.6568266 39.3678195,39.8747749 39.3678195,43.8302583 L39.3678195,49.6511882 C39.3678195,58.8578007 35.9885763,67.6802362 29.8522035,74.4928708 L25.0920264,79.7780074 C24.6029347,80.3207085 24.6425955,81.1611513 25.1804736,81.6546125 C25.4326533,81.8861107 25.7494135,82 26.0652962,82 C26.4232966,82 26.7798931,81.8535203 27.0396189,81.5651661 L31.7999715,76.2800295 C38.3775272,68.9772989 42,59.5204133 42,49.6511882 L42,43.8302583 Z" id="Shape"></path>
                        <path d="M49,43.596942 C49,34.9966991 42.0003998,28 33.3965908,28 C24.7927818,28 17.7931815,34.9966991 17.7931815,43.596942 L17.7931815,48.8859987 C17.7931815,52.436754 16.4844567,55.8457999 14.1081021,58.4849807 L10.3433115,62.6663872 C9.84917382,63.2152213 9.89375499,64.0604864 10.4428167,64.5545975 C10.9917,65.0485304 11.837494,65.0036112 12.3316316,64.4551336 L16.0964222,60.2737272 C18.915557,57.1427525 20.4680517,53.0984208 20.4680517,48.8859987 L20.4680517,43.596942 C20.4680517,36.4710111 26.2677052,30.6737615 33.3965908,30.6737615 C40.5254764,30.6737615 46.3251298,36.4710111 46.3251298,43.596942 L46.3251298,49.4549752 C46.3251298,60.1425346 42.3641821,70.3837541 35.1718129,78.2918493 L33.8331296,79.7638441 C33.336317,80.3101827 33.3766184,81.1558044 33.9231835,81.652411 C34.1794361,81.8852065 34.5014905,82 34.8222966,82 C35.1860789,82 35.5484346,81.8525866 35.8123552,81.5623944 L37.1508602,80.0903995 C44.7917159,71.6889062 48.9998217,60.8091925 48.9998217,49.4549752 L48.9998217,43.596942 L49,43.596942 Z" id="Shape"></path>
                        <path d="M11,44.6294219 C11,45.3865293 11.574797,46 12.2837933,46 C12.9927895,46 13.5675865,45.3865293 13.5675865,44.6294219 C13.5675865,40.0142287 15.1370666,35.5560124 17.9870876,32.0758405 C20.8105769,28.6280143 24.6857497,26.373322 28.8986456,25.7271401 C29.6004526,25.6195041 30.0876093,24.9247124 29.9867888,24.1756458 C29.8859682,23.4263964 29.2346571,22.9070387 28.5335348,23.0139438 C23.7133191,23.753325 19.2813224,26.3307427 16.0540373,30.2717943 C12.7949141,34.2514048 11,39.3505034 11,44.6294219 Z" id="Shape"></path>
                        <path d="M14,48.3296603 C14,47.5951559 13.442114,47 12.753977,47 C12.06584,47 11.507954,47.5951559 11.507954,48.3296603 C11.507954,50.4574713 10.773465,52.5000068 9.439722,54.0814161 L6.31984657,57.7808856 C5.85948261,58.3265782 5.90101671,59.1672781 6.41255068,59.6587205 C6.65079028,59.8874221 6.94867284,60 7.24572472,60 C7.58663661,60 7.92638554,59.8514326 8.17226741,59.5597938 L11.2921428,55.8605016 C13.0382364,53.7899546 14,51.1155645 14,48.3296603 Z" id="Shape"></path>
                        <path d="M51.9025758,62.0415104 C51.1173389,61.8642741 50.3150615,62.2708651 50.1093995,62.9509502 C49.5670396,64.7469113 48.8924685,66.5323469 48.103706,68.2575154 C47.8048106,68.9112866 48.1740228,69.6512994 48.9283124,69.9101935 C49.1059651,69.9711397 49.2889063,70 49.4691054,70 C50.0537729,70 50.6067097,69.6952689 50.8352882,69.195476 C51.6675335,67.3747289 52.3795156,65.4908287 52.9518434,63.5955541 C53.1571136,62.915469 52.687225,62.2195956 51.9025758,62.0415104 Z" id="Shape"></path>
                        <path d="M46.9179877,28.3403322 C46.4457903,27.8500006 45.7190263,27.8949462 45.2946464,28.4399557 C44.8702665,28.9849653 44.9088883,29.8240677 45.3809324,30.3140454 C48.7620249,33.8233407 50.701084,38.8354822 50.701084,44.0656274 L50.701084,49.8809502 C50.701084,52.0880619 50.5692794,54.312161 50.3091954,56.4916684 C50.2226029,57.2178759 50.6621556,57.8874591 51.2909858,57.9874365 C51.3441674,57.9959301 51.3970425,58 51.4493045,58 C52.0145313,58 52.5072657,57.518339 52.5865016,56.8537104 C52.8608389,54.5545841 53,52.2085657 53,49.8807732 L53,44.0656274 C53.0001533,38.0837936 50.7832319,32.3521688 46.9179877,28.3403322 Z" id="Shape"></path>
                        <path d="M40.1734981,26.8816198 C40.3507635,26.9620535 40.5375648,27 40.7216415,27 C41.1989469,27 41.6568399,26.7439419 41.8756545,26.3062594 C42.1789299,25.6999256 41.908349,24.9740765 41.2716581,24.6854233 C39.4315718,23.851086 37.4758628,23.2882123 35.4588517,23.0123701 C34.7596666,22.9175038 34.1134398,23.378538 34.0131426,24.0432511 C33.9128455,24.7079642 34.3974731,25.3245144 35.0956365,25.4200294 C36.8577328,25.6611683 38.5660194,26.1528516 40.1734981,26.8816198 Z" id="Shape"></path>
                        <path d="M32.788452,17 C32.2844513,17 31.7747029,17.0138224 31.2730372,17.0411127 C30.5301481,17.0815165 29.9611266,17.7084847 30.0020789,18.4412471 C30.0432108,19.1741868 30.6779715,19.7385999 31.4213995,19.6950063 C31.8738506,19.6703742 32.3336659,19.6579695 32.7882724,19.6579695 C46.3072024,19.6579695 57.3057695,30.5090559 57.3057695,43.8471044 L57.3057695,49.6709267 C57.3057695,50.4051068 57.9089179,51 58.6528848,51 C59.3968516,51 60,50.4051068 60,49.6709267 L60,43.8472817 C60.0001796,29.0437083 47.7929807,17 32.788452,17 Z" id="Shape"></path>
                        <path d="M18.4242018,24 C18.7044072,24 18.987648,23.925936 19.2352229,23.7718626 C21.6024561,22.2978879 24.2022768,21.1974605 26.9627841,20.5004779 C27.719168,20.3095423 28.1594908,19.605595 27.9462539,18.9284873 C27.733017,18.2513796 26.9466585,17.8576176 26.190654,18.0478736 C23.1248992,18.821808 20.2382331,20.0436935 17.6107144,21.6795557 C16.965502,22.0813018 16.8061434,22.875281 17.2548136,23.452844 C17.5312248,23.8092343 17.9740139,24 18.4242018,24 Z" id="Shape"></path>
                        <path d="M9.23847544,49.0201489 L9.23847544,43.7749631 C9.23847544,37.6073799 11.5147773,31.733592 15.6480577,27.235269 C16.1374979,26.7024775 16.1135513,25.8635165 15.5943071,25.3611298 C15.0750629,24.8587431 14.2572619,24.883668 13.7678217,25.4162827 C9.18059022,30.4085074 6.65431381,36.9285745 6.65431381,43.7749631 L6.65431381,49.0201489 C6.65431381,49.7419099 6.39520854,50.4346803 5.92489112,50.9708305 L4.33166934,52.7871652 C3.85428854,53.3314469 3.89735791,54.1697008 4.42780015,54.6595367 C4.67467372,54.8877496 4.98373945,55 5.29177152,55 C5.64528483,55 5.99741992,54.8520416 6.25256281,54.5612513 L7.8457846,52.7449166 C8.7438669,51.7206983 9.23847544,50.3979116 9.23847544,49.0201489 Z" id="Shape"></path>
                        <path d="M63.9246948,33.3503452 C62.3510155,29.2739821 59.8500783,25.5913149 56.491327,22.4045614 C55.9550976,21.8959748 55.0475442,21.8622914 54.4640623,22.3296908 C53.8805804,22.7970902 53.842128,23.5881508 54.3781661,24.0969041 C57.4633504,27.0240284 59.760356,30.4057123 61.2050954,34.147909 C61.4067314,34.6703358 61.9657262,35 62.5647038,35 C62.7164091,35 62.8707926,34.9788228 63.0224979,34.9343006 C63.7733721,34.7140243 64.1774094,34.0048378 63.9246948,33.3503452 Z" id="Shape"></path>
                        <path d="M42.7280196,13.0702602 C42.0463797,12.8382249 41.3040065,13.1996878 41.0706444,13.8779714 C40.8372824,14.5560819 41.2009861,15.2938884 41.8829741,15.5257506 C44.7609319,16.5049361 47.4629546,17.9234486 49.9140391,19.742356 C50.1484453,19.9162527 50.4221802,20 50.6936528,20 C51.0914646,20 51.4844039,19.8198742 51.7407367,19.4783099 C52.1719605,18.9040183 52.0529302,18.0907701 51.4753548,17.662171 C48.806396,15.6819981 45.8633544,14.1368265 42.7280196,13.0702602 Z" id="Shape"></path>
                        <path d="M12.0535815,22.1636157 C17.747591,16.7089376 25.2169966,13.7048885 33.0858077,13.7048885 C34.5469856,13.7048885 36.0162851,13.8100185 37.452737,14.0170326 C38.1932525,14.1248675 38.879082,13.6109387 38.985927,12.8716025 C39.0927721,12.1322663 38.5796633,11.4466672 37.8396893,11.3399143 C36.275276,11.1145069 34.6758493,11 33.0858077,11 C24.5152847,11 16.380444,14.2712921 10.1800035,20.2112272 C3.99887451,26.132769 0.384011387,34.0791904 0.00139069681,42.5867859 C-0.0321788543,43.3329745 0.546083736,43.9651971 1.29273553,43.9985574 C1.3134909,43.9996393 1.33406578,44 1.35464067,44 C2.07422024,44 2.6732382,43.4337767 2.70590534,42.7083256 C3.05694178,34.8980503 6.37671771,27.6018841 12.0535815,22.1636157 Z" id="Shape"></path>
                        <path d="M33.1567845,6 C30.0845107,6 27.0230443,6.31989873 24.0575637,6.95081013 C23.3191702,7.10779747 22.8625056,7.77293671 23.0372581,8.43610127 C23.2121938,9.09926582 23.9526023,9.50967089 24.6908126,9.35251899 C27.4491181,8.76603797 30.2973644,8.46835443 33.1567845,8.46835443 C43.2308827,8.46835443 52.6345466,12.073962 59.6352718,18.6206962 C59.9050941,18.872962 60.2652235,19 60.6262688,19 C60.9686298,19 61.3115404,18.8857975 61.5778823,18.6559114 C62.1250372,18.1836329 62.1426224,17.4023165 61.6168994,16.9109494 C57.9692611,13.4998481 53.6845271,10.8164177 48.8819469,8.9356962 C43.9075449,6.98767089 38.6167933,6 33.1567845,6 Z" id="Shape"></path>
                        <path d="M2.52081327,20.7383232 C2.76923519,20.9145244 3.06419095,21 3.35715499,21 C3.76038795,21 4.15945639,20.8380721 4.42725233,20.5281615 C8.29752821,16.0489769 13.3927125,12.5356176 19.1618227,10.3675557 C19.8545794,10.1071914 20.1833944,9.3872932 19.8960434,8.75959706 C19.6086924,8.13190091 18.8138147,7.83363861 18.1214201,8.09433102 C11.921555,10.4241567 6.44667628,14.1990288 2.28886831,19.0107643 C1.82642693,19.5460943 1.93035855,20.3194763 2.52081327,20.7383232 Z" id="Shape"></path>
                        <path d="M14.3285767,7 C14.5221977,7 14.7188275,6.95661717 14.9046612,6.86479019 C20.4934778,4.1087153 26.4920134,2.71142673 32.7337258,2.71142673 C35.986347,2.71142673 39.2258713,3.1022337 42.3618596,3.87300194 C43.0742222,4.04761782 43.7913634,3.60005165 43.9628614,2.87212395 C44.1343594,2.14419626 43.6956148,1.41193028 42.9827212,1.23677211 C39.6437317,0.416113622 36.1953657,0 32.7337258,0 C26.0890197,0 19.7021801,1.48803099 13.7505453,4.42306004 C13.0903931,4.74861201 12.8135894,5.55914784 13.1323384,6.23338928 C13.3611794,6.7176501 13.8351439,7 14.3285767,7 Z" id="Shape"></path>
                        <path d="M47.7370681,6.79716381 C48.9424895,7.39238388 50.1355949,8.07672263 51.2831773,8.83084847 C51.4576298,8.94567819 51.645022,9 51.8296081,9 C52.2486682,9 52.6538532,8.71988507 52.8636951,8.22866903 C53.1659858,7.52113235 52.9486607,6.64367088 52.3780655,6.26863778 C51.1562745,5.4657963 49.8858425,4.73718818 48.6021591,4.10330491 C48.0020986,3.80695143 47.3222172,4.16999894 47.083222,4.91368571 C46.8443827,5.6575658 47.1371635,6.50100365 47.7370681,6.79716381 Z" id="Shape"></path>
                    </g>
                </g>
            </g>
        </g>
    </g>
</svg>