<?xml version="1.0" encoding="UTF-8"?>
<svg width="128px" height="128px" viewBox="0 0 128 128" version="1.1" xmlns="http://www.w3.org/2000/svg" xmlns:xlink="http://www.w3.org/1999/xlink">
    <!-- Generator: Sketch 50.2 (55047) - http://www.bohemiancoding.com/sketch -->
    <title>Finger Print entranc</title>
    <desc>Created with Sketch.</desc>
    <defs></defs>
    <g id="Page-1" stroke="none" stroke-width="1" fill="none" fill-rule="evenodd">
        <g id="Traffic---History" transform="translate(-364.000000, -172.000000)" fill-rule="nonzero">
            <g id="Group" transform="translate(89.000000, 80.000000)">
                <g id="Group-10" transform="translate(29.000000, 92.000000)">
                    <g id="fingerprint-(1)" transform="translate(213.000000, 0.000000)">
                        <g id="Finger-Print-entranc" transform="translate(33.000000, 0.000000)">
                            <circle id="Oval" fill="#46A9D4" cx="64" cy="64" r="64"></circle>
                            <g id="Group-6" transform="translate(40.000000, 31.000000)" fill="#FFFFFF">
                                <g id="Group" transform="translate(2.571429, 8.057143)">
                                    <path d="M31.1144571,17.6984571 L31.1144571,23.0161714 L27.3430286,23.0161714 L27.3430286,17.6984571 C27.3430286,14.4790286 24.7236,11.8596 21.5041714,11.8596 C18.2864571,11.8596 15.6670286,14.4790286 15.6670286,17.6984571 L15.6670286,39.4167429 C15.6670286,43.3853143 13.6338857,47.3984571 9.78874286,51.0207429 C8.84931429,51.9070286 7.86874286,52.7007429 6.92245714,53.3864571 C6.16817143,52.7950286 5.4516,52.1590286 4.77445714,51.4836 C4.54474286,51.2538857 4.32017143,51.0190286 4.10074286,50.7807429 C7.4076,48.5230286 11.8956,44.3333143 11.8956,39.4167429 L11.8956,17.6984571 C11.8956,12.3996 16.2070286,8.08817143 21.5041714,8.08817143 C26.8030286,8.08817143 31.1144571,12.3996 31.1144571,17.6984571 Z" id="Shape"></path>
                                    <path d="M23.6058857,16.3613143 L23.6058857,38.1773143 C23.6058857,46.4830286 19.3784571,53.1036 14.8338857,57.4647429 C13.4727429,57.0653143 12.1596,56.5458857 10.9116,55.9167429 C15.1476,52.3647429 19.8344571,46.3287429 19.8344571,38.1773143 L19.8344571,16.3613143 L23.6058857,16.3613143 Z" id="Shape"></path>
                                    <path d="M8.42417143,33.1630286 L8.42417143,37.2327429 C8.42417143,42.5573143 5.51331429,46.1830286 2.06931429,48.2504571 C1.35102857,47.2201714 0.713314286,46.1333143 0.164742857,44.9933143 L0.164742857,44.9916 C2.23731429,43.7453143 4.65274286,41.3967429 4.65274286,37.2327429 L4.65274286,33.1630286 L8.42417143,33.1630286 Z" id="Shape"></path>
                                    <path d="M8.42331429,26.7353143 L4.65188571,26.7353143 L4.65188571,16.8886286 C4.65188571,12.2562857 6.61148571,7.77891429 10.0282286,4.60491429 L12.5952,7.368 C9.94405714,9.83091429 8.42348571,13.3011429 8.42348571,16.8886286 L8.42331429,26.7353143 Z" id="Shape"></path>
                                    <path d="M38.2052571,24.3589714 L34.4338286,24.3589714 L34.4338286,16.8884571 C34.4338286,9.71742857 28.5997714,3.88337143 21.4285714,3.88337143 C20.4528,3.88337143 19.4794286,3.99325714 18.5357143,4.20977143 L17.6917714,0.534171429 C18.9118286,0.253885714 20.1690857,0.111942857 21.4284,0.111942857 C30.6792,0.111942857 38.2050857,7.63782857 38.2050857,16.8884571 L38.2052571,24.3589714 Z" id="Shape"></path>
                                </g>
                                <g id="Group" transform="translate(36.514286, 20.228571)">
                                    <path d="M3.8412,25.2557143 L0.122914286,24.6245143 C0.5412,22.1600571 0.491485714,16.8651429 0.490971429,16.812 L4.26205714,16.7727429 C4.2648,17.0034857 4.31605714,22.4586857 3.8412,25.2557143 Z" id="Shape"></path>
                                    <path d="M11.0526857,14.5220571 L7.28125714,14.5220571 L7.28125714,3.64508571 C7.28125714,2.66348571 7.20771429,1.67674286 7.06302857,0.712114286 L10.7926286,0.151885714 C10.9652571,1.30131429 11.0528571,2.47662857 11.0528571,3.64508571 L11.0528571,14.5220571 L11.0526857,14.5220571 Z" id="Shape"></path>
                                </g>
                                <path d="M4.20445714,43.9638857 L0.433028571,43.9638857 L0.433028571,23.8736571 C0.433028571,10.8786857 11.0050286,0.306514286 24,0.306514286 C32.1109714,0.306514286 39.5614286,4.42782857 43.9296,11.3310857 L40.7427429,13.3477714 C37.0697143,7.54337143 30.8106857,4.07811429 24,4.07811429 C13.0846286,4.07811429 4.20445714,12.9584571 4.20445714,23.8738286 L4.20445714,43.9638857 Z" id="Shape"></path>
                                <g id="Group" transform="translate(24.000000, 0.171429)">
                                    <path d="M20.4759429,54.2600571 L17.2016571,52.3880571 C18.8984571,49.4201143 19.7955429,46.0441714 19.7955429,42.6253714 L23.5669714,42.6253714 C23.5669714,46.6998857 22.4981143,50.7229714 20.4759429,54.2600571 Z" id="Shape"></path>
                                    <path d="M14.7665143,60.0356571 C10.4226857,58.5641143 7.58297143,54.0954857 6.32605714,46.7533714 C5.44834286,41.6262857 5.68302857,36.9464571 5.69348571,36.7498286 L9.4596,36.9493714 L7.57662857,36.8496 L9.45977143,36.9483429 C9.21377143,41.6790857 9.90548571,54.4068 15.9768,56.4636 L14.7665143,60.0356571 Z" id="Shape"></path>
                                    <path d="M11.3521714,63.3584571 C10.0270286,64.0921714 8.62302857,64.7024571 7.15902857,65.1738857 C3.86931429,62.6487429 2.14645714,59.2990286 2.04531429,59.0984571 L5.41045714,57.3961714 C5.43445714,57.4424571 7.57045714,61.5481714 11.3521714,63.3584571 Z" id="Shape"></path>
                                    <path d="M9.68571429,25.584 L9.68571429,30.9017143 L5.91428571,30.9017143 L5.91428571,25.584 C5.91428571,22.3645714 3.29485714,19.7451429 0.0754285714,19.7451429 C0.0497142857,19.7451429 0.0257142857,19.7451429 0,19.7468571 L0,15.9754286 C0.0257142857,15.9737143 0.0497142857,15.9737143 0.0754285714,15.9737143 C5.37428571,15.9737143 9.68571429,20.2851429 9.68571429,25.584 Z" id="Shape"></path>
                                    <path d="M2.17714286,24.2468571 L2.17714286,46.0628571 C2.17714286,49.7674286 1.33542857,53.1394286 0,56.1222857 L0,24.2468571 L2.17714286,24.2468571 Z" id="Shape"></path>
                                    <path d="M16.776,24.7748571 L16.776,32.244 L13.0045714,32.244 L13.0045714,24.7748571 C13.0045714,17.604 7.17085714,11.7685714 0,11.7685714 L0,7.99714286 C9.25028571,7.99714286 16.776,15.5228571 16.776,24.7748571 Z" id="Shape"></path>
                                    <path d="M19.9302857,11.16 L16.7434286,13.176 C13.0697143,7.37142857 6.81085714,3.90685714 0,3.90685714 L0,0.135428571 C8.11028571,0.135428571 15.5622857,4.25657143 19.9302857,11.16 Z" id="Shape"></path>
                                </g>
                            </g>
                        </g>
                    </g>
                </g>
            </g>
        </g>
    </g>
</svg>