<?xml version="1.0" encoding="UTF-8" standalone="no"?>
<svg
   xmlns:dc="http://purl.org/dc/elements/1.1/"
   xmlns:cc="http://creativecommons.org/ns#"
   xmlns:rdf="http://www.w3.org/1999/02/22-rdf-syntax-ns#"
   xmlns:svg="http://www.w3.org/2000/svg"
   xmlns="http://www.w3.org/2000/svg"
   xml:space="preserve"
   style="enable-background:new 0 0 215.35 215.35;"
   viewBox="0 0 215.35 215.35"
   y="0px"
   x="0px"
   id="Capa_1"
   version="1.1"><metadata
   id="metadata265"><rdf:RDF><cc:Work
       rdf:about=""><dc:format>image/svg+xml</dc:format><dc:type
         rdf:resource="http://purl.org/dc/dcmitype/StillImage" /><dc:title></dc:title></cc:Work></rdf:RDF></metadata><defs
   id="defs263" />
<g
   id="g228">
	<path
   id="path220"
   d="m 68.608625,11.015 c -4.143,0 -7.5,3.358 -7.5,7.5 v 31.978 l -48.305,-48.295 c -1.465,-1.464 -3.384,-2.196 -5.303,-2.196 -1.92,0 -3.84,0.732 -5.304,2.197 -2.92899998,2.929 -2.92899998,7.678 10e-4,10.606 l 48.307,48.296 h -31.985 c -4.142,0 -7.5,3.358 -7.5,7.5 0,4.142 3.357,7.5 7.5,7.5 h 50.089 c 4.143,0 7.5,-3.358 7.5,-7.5 V 18.514 c 0,-4.141 -3.357,-7.499 -7.5,-7.499 z" />
	<path
   id="path222"
   d="m 145.25525,202.83625 c 4.143,0 7.5,-3.358 7.5,-7.5 v -31.979 l 49.792,49.792 c 2.93,2.929 7.678,2.929 10.607,0 2.929,-2.929 2.929,-7.678 0,-10.606 l -49.791,-49.791 h 31.977 c 4.143,0 7.5,-3.358 7.5,-7.5 0,-4.142 -3.357,-7.5 -7.5,-7.5 h -50.086 c -4.143,0 -7.5,3.358 -7.5,7.5 v 50.084 c 10e-4,4.142 3.359,7.5 7.501,7.5 z" />
	<path
   id="path224"
   d="m 12.808625,213.15112 49.787,-49.791 v 31.978 c 0,4.142 3.357,7.5 7.5,7.5 4.143,0 7.5,-3.358 7.5,-7.5 v -50.086 c 0,-4.142 -3.357,-7.5 -7.5,-7.5 h -50.084 c -4.142,0 -7.5,3.358 -7.5,7.5 0,4.142 3.357,7.5 7.5,7.5 h 31.978 l -49.788,49.793 c -2.92899998,2.929 -2.92899998,7.678 10e-4,10.607 2.927,2.928 7.676,2.928 10.606,-0.001 z" />
	<path
   id="path226"
   d="m 146.74937,76.106 h 50.086 c 4.143,0 7.5,-3.358 7.5,-7.5 0,-4.142 -3.357,-7.5 -7.5,-7.5 h -31.979 l 48.298,-48.301 c 2.929,-2.929 2.929,-7.678 -0.001,-10.607 -1.464,-1.464 -3.384,-2.196 -5.303,-2.196 -1.919,0 -3.839,0.733 -5.304,2.197 L 154.24837,50.5 V 18.52 c 0,-4.142 -3.357,-7.5 -7.5,-7.5 -4.143,0 -7.5,3.358 -7.5,7.5 v 50.086 c 0.001,4.143 3.359,7.5 7.501,7.5 z" />
</g>
<g
   id="g230">
</g>
<g
   id="g232">
</g>
<g
   id="g234">
</g>
<g
   id="g236">
</g>
<g
   id="g238">
</g>
<g
   id="g240">
</g>
<g
   id="g242">
</g>
<g
   id="g244">
</g>
<g
   id="g246">
</g>
<g
   id="g248">
</g>
<g
   id="g250">
</g>
<g
   id="g252">
</g>
<g
   id="g254">
</g>
<g
   id="g256">
</g>
<g
   id="g258">
</g>
</svg>