<?xml version="1.0" encoding="iso-8859-1"?>
<!-- Generator: Adobe Illustrator 18.1.1, SVG Export Plug-In . SVG Version: 6.00 Build 0)  -->
<svg version="1.1" id="Capa_1" xmlns="http://www.w3.org/2000/svg" xmlns:xlink="http://www.w3.org/1999/xlink" x="0px" y="0px"
	 viewBox="0 0 32 32" style="enable-background:new 0 0 32 32;" xml:space="preserve">
<g>
	<g>
		<path style="fill:#010002;" d="M0,2v24h14v2H8v2h16v-0.061c2.702-0.299,5.042-1.791,6.48-3.939H32V2H0z M23,27.999
			c-3.865-0.008-6.994-3.135-7-6.999c0.006-3.865,3.135-6.994,7-7c3.863,0.006,6.991,3.135,6.999,7
			C29.991,24.864,26.863,27.991,23,27.999z M30,15.35c-0.57-0.707-1.244-1.326-2-1.832V6h-8l6.896,6.896
			C25.717,12.328,24.398,12,23,12c-4.973,0-9,4.027-9,9c0,1.055,0.19,2.061,0.523,3H2V4h28V15.35z"/>
		<polygon style="fill:#010002;" points="4,14 4,22 12,22 		"/>
		<polygon style="fill:#010002;" points="25,17 23,19 21,17 19,19 21,21 19,23 21,25 23,23 25,25 27,23 25,21 27,19 		"/>
	</g>
</g>
<g>
</g>
<g>
</g>
<g>
</g>
<g>
</g>
<g>
</g>
<g>
</g>
<g>
</g>
<g>
</g>
<g>
</g>
<g>
</g>
<g>
</g>
<g>
</g>
<g>
</g>
<g>
</g>
<g>
</g>
</svg>
