<?xml version="1.0" encoding="UTF-8"?>
<svg width="128px" height="128px" viewBox="0 0 128 128" version="1.1" xmlns="http://www.w3.org/2000/svg" xmlns:xlink="http://www.w3.org/1999/xlink">
    <!-- Generator: Sketch 50.2 (55047) - http://www.bohemiancoding.com/sketch -->
    <title>ID Card</title>
    <desc>Created with Sketch.</desc>
    <defs></defs>
    <g id="Page-1" stroke="none" stroke-width="1" fill="none" fill-rule="evenodd">
        <g id="Traffic---History" transform="translate(-584.000000, -172.000000)" fill-rule="nonzero">
            <g id="Group" transform="translate(89.000000, 80.000000)">
                <g id="Group-10" transform="translate(29.000000, 92.000000)">
                    <g id="id-card-(1)" transform="translate(436.000000, 0.000000)">
                        <g id="ID-Card" transform="translate(30.000000, 0.000000)">
                            <circle id="Oval" fill="#F5A638" cx="64" cy="64" r="64"></circle>
                            <path d="M92.4502069,87.3448276 L35.5497931,87.3448276 C33.5889655,87.3448276 32,85.7558621 32,83.7950345 L32,44.5497931 C32,42.5889655 33.5889655,41 35.5497931,41 L92.4502069,41 C94.4110345,41 96,42.5889655 96,44.5497931 L96,83.7950345 C96,85.7558621 94.4110345,87.3448276 92.4502069,87.3448276 Z" id="Shape" fill="#525252"></path>
                            <path d="M55.1937471,71.907893 L51.0370575,69.7848585 C50.7534713,69.6403068 50.5747126,69.347893 50.5747126,69.0300999 L50.5747126,67.757824 C52.7076782,66.8386516 53.9336092,65.0532723 54.5305747,62.819893 C55.4298851,62.5407206 56.091954,61.7087206 56.091954,60.7211344 L56.091954,59.6176861 C56.091954,58.7724447 55.6053333,58.0430654 54.9024368,57.6723068 C54.4158161,53.5222378 51.6726437,51.8427895 47.2643678,51.8427895 C47.0558161,51.8427895 46.8505747,51.8505137 46.6497471,51.8670654 C45.1512644,51.9862378 43.6351264,51.7048585 42.3882299,50.8640309 C41.8696092,50.5153413 41.4337471,50.1434792 41.1269885,49.7539619 C40.9868506,49.5763068 40.7076782,49.6899619 40.7330575,49.9139619 C40.7771954,50.3001688 40.8434023,50.7503757 40.9405057,51.2425137 C41.3046437,53.0742378 41.0872644,52.8072033 40.3788506,54.5352033 C39.9871264,55.4907895 39.7344368,56.5512033 39.6174713,57.6745137 C38.920092,58.0485826 38.4367816,58.7757551 38.4367816,59.6176861 L38.4367816,60.7211344 C38.4367816,61.7087206 39.0988506,62.5407206 39.9981609,62.819893 C40.5951264,65.0521688 41.819954,66.8386516 43.954023,67.757824 L43.954023,69.0212723 C43.954023,69.3445826 43.7708506,69.6392033 43.4806437,69.7826516 L39.2202299,71.8803068 C38.0571954,72.5147895 37.3333333,73.7329964 37.3333333,75.0582378 L37.3333333,76.0689964 C37.3333333,76.0689964 37.3333333,76.365824 37.3333333,76.5203068 C37.3333333,77.7672033 41.7791264,78.3763068 47.2643678,78.3763068 C52.7496092,78.3763068 57.1954023,77.7672033 57.1954023,76.5203068 C57.1954023,76.365824 57.1954023,76.0689964 57.1954023,76.0689964 L57.1954023,75.1465137 C57.1954023,73.7760309 56.4207816,72.5214102 55.1937471,71.907893 Z" id="Shape" fill="#FFFFFF"></path>
                            <g id="Group" transform="translate(63.333333, 54.333333)" fill="#AFB6BB">
                                <path d="M1.10344828,2.20689655 L12.137931,2.20689655 C12.7481379,2.20689655 13.2413793,1.71365517 13.2413793,1.10344828 C13.2413793,0.493241379 12.7481379,0 12.137931,0 L1.10344828,0 C0.493241379,0 0,0.493241379 0,1.10344828 C0,1.71365517 0.493241379,2.20689655 1.10344828,2.20689655 Z" id="Shape"></path>
                                <path d="M16.5517241,2.20689655 L17.6551724,2.20689655 C18.2653793,2.20689655 18.7586207,1.71365517 18.7586207,1.10344828 C18.7586207,0.493241379 18.2653793,0 17.6551724,0 L16.5517241,0 C15.9415172,0 15.4482759,0.493241379 15.4482759,1.10344828 C15.4482759,1.71365517 15.9415172,2.20689655 16.5517241,2.20689655 Z" id="Shape"></path>
                                <path d="M2.20689655,18.7586207 L1.10344828,18.7586207 C0.493241379,18.7586207 0,19.2518621 0,19.862069 C0,20.4722759 0.493241379,20.9655172 1.10344828,20.9655172 L2.20689655,20.9655172 C2.81710345,20.9655172 3.31034483,20.4722759 3.31034483,19.862069 C3.31034483,19.2518621 2.81710345,18.7586207 2.20689655,18.7586207 Z" id="Shape"></path>
                                <path d="M8.82758621,18.7586207 L6.62068966,18.7586207 C6.01048276,18.7586207 5.51724138,19.2518621 5.51724138,19.862069 C5.51724138,20.4722759 6.01048276,20.9655172 6.62068966,20.9655172 L8.82758621,20.9655172 C9.4377931,20.9655172 9.93103448,20.4722759 9.93103448,19.862069 C9.93103448,19.2518621 9.4377931,18.7586207 8.82758621,18.7586207 Z" id="Shape"></path>
                                <path d="M14.3448276,18.7586207 L13.2413793,18.7586207 C12.6311724,18.7586207 12.137931,19.2518621 12.137931,19.862069 C12.137931,20.4722759 12.6311724,20.9655172 13.2413793,20.9655172 L14.3448276,20.9655172 C14.9550345,20.9655172 15.4482759,20.4722759 15.4482759,19.862069 C15.4482759,19.2518621 14.9550345,18.7586207 14.3448276,18.7586207 Z" id="Shape"></path>
                                <path d="M20.9655172,18.7586207 L18.7586207,18.7586207 C18.1484138,18.7586207 17.6551724,19.2518621 17.6551724,19.862069 C17.6551724,20.4722759 18.1484138,20.9655172 18.7586207,20.9655172 L20.9655172,20.9655172 C21.5757241,20.9655172 22.0689655,20.4722759 22.0689655,19.862069 C22.0689655,19.2518621 21.5757241,18.7586207 20.9655172,18.7586207 Z" id="Shape"></path>
                                <path d="M24.5958621,19.0786207 C24.3961379,19.2871724 24.2758621,19.5751724 24.2758621,19.862069 C24.2758621,20.1489655 24.3961379,20.4358621 24.5958621,20.6455172 C24.8044138,20.8441379 25.0924138,20.9655172 25.3793103,20.9655172 C25.6662069,20.9655172 25.9531034,20.8441379 26.1627586,20.6455172 C26.3613793,20.4358621 26.4827586,20.1489655 26.4827586,19.862069 C26.4827586,19.5751724 26.3613793,19.2871724 26.1627586,19.0786207 C25.7434483,18.6703448 25.0041379,18.6703448 24.5958621,19.0786207 Z" id="Shape"></path>
                                <path d="M1.10344828,8.82758621 L25.3793103,8.82758621 C25.9895172,8.82758621 26.4827586,8.33434483 26.4827586,7.72413793 C26.4827586,7.11393103 25.9895172,6.62068966 25.3793103,6.62068966 L1.10344828,6.62068966 C0.493241379,6.62068966 0,7.11393103 0,7.72413793 C0,8.33434483 0.493241379,8.82758621 1.10344828,8.82758621 Z" id="Shape"></path>
                                <path d="M25.3793103,13.2413793 L1.10344828,13.2413793 C0.493241379,13.2413793 0,13.7346207 0,14.3448276 C0,14.9550345 0.493241379,15.4482759 1.10344828,15.4482759 L25.3793103,15.4482759 C25.9895172,15.4482759 26.4827586,14.9550345 26.4827586,14.3448276 C26.4827586,13.7346207 25.9895172,13.2413793 25.3793103,13.2413793 Z" id="Shape"></path>
                            </g>
                        </g>
                    </g>
                </g>
            </g>
        </g>
    </g>
</svg>