<?xml version="1.0" encoding="UTF-8"?>
<svg width="104px" height="82px" viewBox="0 0 104 82" version="1.1" xmlns="http://www.w3.org/2000/svg" xmlns:xlink="http://www.w3.org/1999/xlink">
    <!-- Generator: Sketch 50.2 (55047) - http://www.bohemiancoding.com/sketch -->
    <title>id-card_table</title>
    <desc>Created with Sketch.</desc>
    <defs></defs>
    <g id="Page-1" stroke="none" stroke-width="1" fill="none" fill-rule="evenodd">
        <g id="Traffic---History" transform="translate(-609.000000, -882.000000)" fill="#000000" fill-rule="nonzero">
            <g id="Additions" transform="translate(85.000000, 481.000000)">
                <g id="id-card_table" transform="translate(524.000000, 401.000000)">
                    <path d="M92.6755556,0 L11.3244444,0 C5.08444444,0 0,5.11048159 0,11.3824363 L0,70.6175637 C0,76.8895184 5.08444444,82 11.3244444,82 L92.6755556,82 C98.9155556,82 104,76.8895184 104,70.6175637 L104,11.3824363 C104,5.11048159 98.9155556,0 92.6755556,0 Z M22.5333333,26.8300283 C23.5733333,21.7195467 28.5422222,18.3512748 33.6266667,19.3966006 C38.7111111,20.4419263 42.0622222,25.4362606 41.0222222,30.5467422 C40.3288889,34.2634561 37.3244444,37.2832861 33.6266667,37.98017 C28.5422222,39.0254958 23.5733333,35.6572238 22.5333333,30.5467422 C22.3022222,29.3852691 22.3022222,28.1076487 22.5333333,26.8300283 Z M47.84,60.2804533 C47.84,61.674221 46.6844444,62.8356941 45.2977778,62.8356941 L18.2577778,62.8356941 C16.8711111,62.8356941 15.7155556,61.674221 15.7155556,60.2804533 L15.7155556,57.2606232 C15.6,48.898017 21.7244444,41.9291785 29.9288889,40.7677054 C38.7111111,39.7223796 46.8,46.1104816 47.7244444,54.9376771 C47.84,55.5184136 47.84,56.2152975 47.84,56.796034 L47.84,60.2804533 Z M87.36,54.5892351 L57.0844444,54.5892351 L57.0844444,46.9235127 L87.36,46.9235127 L87.36,54.5892351 Z M87.36,35.0764873 L57.0844444,35.0764873 L57.0844444,27.4107649 L87.36,27.4107649 L87.36,35.0764873 Z" id="Shape"></path>
                </g>
            </g>
        </g>
    </g>
</svg>