<?xml version="1.0" encoding="UTF-8"?>
<svg width="30px" height="30px" viewBox="0 0 30 30" version="1.1" xmlns="http://www.w3.org/2000/svg" xmlns:xlink="http://www.w3.org/1999/xlink">
    <!-- Generator: Sketch 50.2 (55047) - http://www.bohemiancoding.com/sketch -->
    <title>logout</title>
    <desc>Created with Sketch.</desc>
    <defs></defs>
    <g id="Page-1" stroke="none" stroke-width="1" fill="none" fill-rule="evenodd">
        <g id="Traffic---History" transform="translate(-1570.000000, -100.000000)" fill="#FFFFFF" fill-rule="nonzero">
            <g id="logout" transform="translate(1585.000000, 115.000000) scale(-1, 1) translate(-1585.000000, -115.000000) translate(1570.000000, 100.000000)">
                <path d="M29.9091167,13.5222232 C29.847909,13.3696932 29.7603167,13.2309338 29.6487027,13.1146758 L26.0494312,9.36565 C25.5801909,8.87811667 24.8216768,8.87811667 24.3524365,9.36565 C23.8831962,9.85441388 23.8831962,10.645718 24.3524365,11.1332513 L25.9042317,12.7496118 L19.2001322,12.7496118 C18.5364675,12.7496118 18,13.3096305 18,13.9996777 C18,14.6897249 18.5364675,15.2497436 19.2001322,15.2497436 L25.9041754,15.2497436 L24.3523803,16.8661041 C23.88314,17.354868 23.88314,18.1461721 24.3523803,18.6337054 C24.5864097,18.8787026 24.8936296,19 25.2009057,19 C25.5081819,19 25.8154018,18.8787612 26.0494312,18.6337054 L29.6487027,14.8846796 C29.7603167,14.7696522 29.847909,14.6308927 29.9091167,14.4771322 C30.0302944,14.1722481 30.0302944,13.8272245 29.9091167,13.5222232 Z" id="Shape"></path>
                <path d="M21.7222389,17.4999854 C21.0156459,17.4999854 20.4444777,18.0599647 20.4444777,18.7499634 L20.4444777,24.9999707 L15.3333733,24.9999707 L15.3333733,4.9999707 C15.3333733,4.44872178 14.9627968,3.96122273 14.4222954,3.80249257 L9.98454163,2.50001465 L20.4444777,2.50001465 L20.4444777,8.75002197 C20.4444777,9.44002062 21.0156459,10 21.7222389,10 C22.4288318,10 23,9.44002062 23,8.75002197 L23,1.25003662 C23,0.559979375 22.4288318,0 21.7222389,0 L1.27776114,0 C1.23176102,0 1.19085206,0.0187499634 1.14616965,0.0237304224 C1.08609397,0.0299999414 1.03116935,0.0399608595 0.973669202,0.0537303638 C0.839502186,0.0874802979 0.718093016,0.138749729 0.604410428,0.20871053 C0.576319209,0.226230027 0.541819119,0.227460493 0.514985716,0.247440923 C0.504683606,0.254999502 0.500850263,0.268769006 0.490608048,0.276268992 C0.351349873,0.383729719 0.235091758,0.514979463 0.150758205,0.671248689 C0.132849304,0.704998623 0.129015961,0.741268083 0.115000299,0.776248484 C0.0740913388,0.871228767 0.0294089308,0.963748118 0.0140755575,1.06874791 C0.00766668663,1.10624784 0.0191667166,1.14122824 0.0179089008,1.1774977 C0.016651085,1.20251718 0,1.22501714 0,1.24997803 L0,26.2499487 C0,26.8461976 0.430592267,27.3587161 1.02733601,27.4749659 L13.8051271,29.9749805 C13.8882028,29.9925 13.9725364,30 14.0555522,30 C14.3481441,30 14.6356449,29.9012697 14.8656455,29.716231 C15.1608129,29.478751 15.3333134,29.1249626 15.3333134,28.7499634 L15.3333134,27.4999854 L21.7222389,27.4999854 C22.4288318,27.4999854 23,26.940006 23,26.2500073 L23,18.7499634 C23,18.0599647 22.4288318,17.4999854 21.7222389,17.4999854 Z" id="Shape"></path>
            </g>
        </g>
    </g>
</svg>