<?xml version="1.0" encoding="UTF-8"?>
<svg width="32px" height="28px" viewBox="0 0 32 28" version="1.1" xmlns="http://www.w3.org/2000/svg" xmlns:xlink="http://www.w3.org/1999/xlink">
    <!-- Generator: Sketch 50.2 (55047) - http://www.bohemiancoding.com/sketch -->
    <title>multiple-users-silhouette</title>
    <desc>Created with Sketch.</desc>
    <defs></defs>
    <g id="Page-1" stroke="none" stroke-width="1" fill="none" fill-rule="evenodd">
        <g id="Traffic---History" transform="translate(-1843.000000, -751.000000)" fill="#FFFFFF" fill-rule="nonzero">
            <g id="Panel-Left" transform="translate(1508.000000, 177.000000)">
                <g id="Second">
                    <g transform="translate(36.000000, 440.000000)" id="multiple-users-silhouette">
                        <g transform="translate(299.000000, 134.762091)">
                            <path d="M19.1032099,4.70992593 C20.5669136,5.62765432 21.593284,7.18064198 21.7801481,8.98330864 C22.3770864,9.26222222 23.0396049,9.42261728 23.7420247,9.42261728 C26.3063704,9.42261728 28.3847901,7.34419753 28.3847901,4.78024691 C28.3847901,2.21590123 26.3063704,0.137481481 23.7420247,0.137481481 C21.2021728,0.138271605 19.1419259,2.17955556 19.1032099,4.70992593 Z M16.0616296,14.2159012 C18.6259753,14.2159012 20.7043951,12.1370864 20.7043951,9.5731358 C20.7043951,7.00918519 18.6255802,4.93076543 16.0616296,4.93076543 C13.497679,4.93076543 11.4180741,7.00958025 11.4180741,9.57353086 C11.4180741,12.1374815 13.497679,14.2159012 16.0616296,14.2159012 Z M18.0310123,14.5323457 L14.0914568,14.5323457 C10.8136296,14.5323457 8.14696296,17.1994074 8.14696296,20.4772346 L8.14696296,25.2950123 L8.15920988,25.3704691 L8.49106173,25.4743704 C11.6191605,26.4517531 14.3367901,26.777679 16.5736296,26.777679 C20.9426173,26.777679 23.474963,25.5320494 23.6310123,25.452642 L23.9411358,25.2958025 L23.974321,25.2958025 L23.974321,20.4772346 C23.9755062,17.1994074 21.3088395,14.5323457 18.0310123,14.5323457 Z M25.7121975,9.73945679 L21.8030617,9.73945679 C21.7607901,11.3035062 21.0931358,12.7119012 20.0371358,13.7248395 C22.950716,14.5912099 25.0824691,17.293037 25.0824691,20.4843457 L25.0824691,21.9689877 C28.9422222,21.8275556 31.1664198,20.7336296 31.3129877,20.6601481 L31.6231111,20.5029136 L31.6562963,20.5029136 L31.6562963,15.6835556 C31.6562963,12.4061235 28.9896296,9.73945679 25.7121975,9.73945679 Z M7.91506173,9.42340741 C8.82330864,9.42340741 9.66834568,9.15832099 10.3841975,8.70676543 C10.6117531,7.22251852 11.4074074,5.92553086 12.544,5.04217284 C12.5487407,4.95525926 12.557037,4.8691358 12.557037,4.7814321 C12.557037,2.21708642 10.4782222,0.138666667 7.91506173,0.138666667 C5.35032099,0.138666667 3.2722963,2.21708642 3.2722963,4.7814321 C3.2722963,7.34459259 5.35032099,9.42340741 7.91506173,9.42340741 Z M12.0845432,13.7248395 C11.033679,12.717037 10.3683951,11.3161481 10.3198025,9.76158025 C10.1748148,9.75091358 10.0314074,9.73945679 9.88365432,9.73945679 L5.94449383,9.73945679 C2.66666667,9.73945679 0,12.4061235 0,15.6835556 L0,20.5021235 L0.0122469136,20.5763951 L0.344098765,20.6810864 C2.85353086,21.4644938 5.0931358,21.8255802 7.03841975,21.939358 L7.03841975,20.4843457 C7.03920988,17.293037 9.17017284,14.592 12.0845432,13.7248395 Z" id="Shape"></path>
                        </g>
                    </g>
                </g>
            </g>
        </g>
    </g>
</svg>