<?xml version="1.0" encoding="UTF-8"?>
<svg width="32px" height="31px" viewBox="0 0 32 31" version="1.1" xmlns="http://www.w3.org/2000/svg" xmlns:xlink="http://www.w3.org/1999/xlink">
    <!-- Generator: Sketch 50.2 (55047) - http://www.bohemiancoding.com/sketch -->
    <title>printer-</title>
    <desc>Created with Sketch.</desc>
    <defs></defs>
    <g id="Page-1" stroke="none" stroke-width="1" fill="none" fill-rule="evenodd">
        <g id="Traffic---History" transform="translate(-1245.000000, -30.000000)" fill="#484A69" fill-rule="nonzero">
            <g id="printer-" transform="translate(1245.000000, 30.000000)">
                <path d="M8,24.3555556 L8,30.2222222 L24,30.2222222 L24,24.3555556 L24,20.4444444 L8,20.4444444 L8,24.3555556 Z M10,22.4 L22,22.4 L22,24.3555556 L10,24.3555556 L10,22.4 Z M10,26.3111111 L22,26.3111111 L22,28.2666667 L10,28.2666667 L10,26.3111111 Z" id="Shape"></path>
                <polygon id="Shape" points="24 5.86666667 24 0 8 0 8 5.86666667 8 9.77777778 24 9.77777778"></polygon>
                <path d="M28,6.22222222 L26,6.22222222 L26,10.1728395 L26,12.1481481 L6,12.1481481 L6,10.1728395 L6,6.22222222 L4,6.22222222 C2,6.22222222 0,8.19753086 0,10.1728395 L0,20.0493827 C0,22.0246914 2,24 4,24 L6,24 L6,20.0493827 L6,18.0740741 L26,18.0740741 L26,20.0493827 L26,24 L28,24 C30,24 32,22.0246914 32,20.0493827 L32,10.1728395 C32,8.19753086 30,6.22222222 28,6.22222222 Z" id="Shape"></path>
            </g>
        </g>
    </g>
</svg>