<?xml version="1.0" encoding="UTF-8"?>
<svg width="36px" height="36px" viewBox="0 0 36 36" version="1.1" xmlns="http://www.w3.org/2000/svg" xmlns:xlink="http://www.w3.org/1999/xlink">
    <!-- Generator: Sketch 50.2 (55047) - http://www.bohemiancoding.com/sketch -->
    <title>Search</title>
    <desc>Created with Sketch.</desc>
    <defs></defs>
    <g id="Page-1" stroke="none" stroke-width="1" fill="none" fill-rule="evenodd">
        <g id="Traffic---History" transform="translate(-87.000000, -481.000000)" fill="#34354F" fill-rule="nonzero">
            <g id="Additions" transform="translate(85.000000, 481.000000)">
                <g id="musica-searcher" transform="translate(2.000000, 0.000000)">
                    <path d="M35.1189555,30.8644572 L27.2981399,23.0437854 C27.2565758,23.0022212 27.2078206,22.9731695 27.1643868,22.9344818 C28.7032663,20.600131 29.6014254,17.8058423 29.6014254,14.8008565 C29.6014254,6.62653009 22.9748953,0 14.8007127,0 C6.62653009,0 0,6.62653009 0,14.8007127 C0,22.9747515 6.62638627,29.6014254 14.8005689,29.6014254 C17.8056985,29.6014254 20.5998434,28.7032663 22.9341941,27.1643868 C22.9728818,27.2076768 23.0017898,27.256432 23.0433539,27.2979961 L30.8643133,35.1189555 C32.0391831,36.2936815 33.943942,36.2936815 35.1189555,35.1189555 C36.2936815,33.9440858 36.2936815,32.0393269 35.1189555,30.8644572 Z M14.8007127,24.4704848 C9.46008182,24.4704848 5.13079677,20.1411998 5.13079677,14.8007127 C5.13079677,9.46008182 9.46022564,5.13079677 14.8007127,5.13079677 C20.141056,5.13079677 24.4704848,9.46022564 24.4704848,14.8007127 C24.4704848,20.1411998 20.141056,24.4704848 14.8007127,24.4704848 Z" id="Search"></path>
                </g>
            </g>
        </g>
    </g>
</svg>