<?xml version="1.0" encoding="UTF-8"?>
<svg width="32px" height="32px" viewBox="0 0 32 32" version="1.1" xmlns="http://www.w3.org/2000/svg" xmlns:xlink="http://www.w3.org/1999/xlink">
    <!-- Generator: Sketch 50.2 (55047) - http://www.bohemiancoding.com/sketch -->
    <title>spanner</title>
    <desc>Created with Sketch.</desc>
    <defs></defs>
    <g id="Page-1" stroke="none" stroke-width="1" fill="none" fill-rule="evenodd">
        <g id="Traffic---History" transform="translate(-1843.000000, -826.000000)" fill="#FFFFFF" fill-rule="nonzero">
            <g id="Panel-Left" transform="translate(1508.000000, 177.000000)">
                <g id="Second">
                    <g transform="translate(36.000000, 440.000000)" id="spanner">
                        <g transform="translate(299.000000, 209.000000)">
                            <path d="M31.7710485,4.19636028 C31.7710485,4.1206836 31.6953718,4.04500693 31.6575335,4.04500693 C31.5818568,4.04500693 31.5061801,4.04500693 31.4683418,4.08284527 L28.0628915,7.41261894 L24.5439261,3.89365358 L27.9493764,0.488203233 C28.0250531,0.412526559 28.0250531,0.299011547 27.9493764,0.223334873 C27.9115381,0.185496536 27.9115381,0.185496536 27.8736998,0.185496536 C25.3006928,-0.382078522 22.6520092,0.374688222 20.722254,2.15309007 C18.9060139,3.96933025 19.3600739,6.08827714 19.6627806,7.48829561 C19.7006189,7.6774873 19.7384573,7.90451732 19.7762956,8.05587067 C18.5654688,9.34237413 9.40859122,18.5370901 8.04641109,19.8235935 C7.89505774,19.7857552 7.74370439,19.7479169 7.5545127,19.7100785 C6.15449423,19.3695335 4.11122402,18.8776351 2.21930716,20.7317136 C0.440905312,22.6236305 -0.315861432,25.2723141 0.251713626,27.8074827 C0.289551963,27.9209977 0.365228637,27.958836 0.478743649,27.958836 C0.516581986,27.958836 0.554420323,27.9209977 0.554420323,27.9209977 L3.95987067,24.591224 L7.47883603,28.1101894 L4.07338568,31.5156397 C3.99770901,31.5913164 3.99770901,31.7048314 4.07338568,31.7805081 C4.11122402,31.8183464 4.11122402,31.8183464 4.14906236,31.8183464 C4.67879908,31.9318614 5.24637413,32.0075381 5.81394919,32.0075381 C7.8572194,32.0075381 9.82481293,31.2507714 11.3005081,29.8129145 C13.1167483,27.9966744 12.6626882,25.8777275 12.3599815,24.477709 C12.3221432,24.2885173 12.2843048,24.0614873 12.2464665,23.9101339 C13.4572933,22.6236305 22.6141709,13.4289145 23.976351,12.1424111 L24.4682494,12.2559261 C25.8304296,12.5964711 27.9493764,13.1262079 29.803455,11.2721293 C31.5818568,9.38021247 32.3007852,6.73152887 31.7710485,4.19636028 Z" id="Shape"></path>
                        </g>
                    </g>
                </g>
            </g>
        </g>
    </g>
</svg>