<?xml version="1.0" encoding="UTF-8"?>
<svg width="47px" height="38px" viewBox="0 0 47 38" version="1.1" xmlns="http://www.w3.org/2000/svg" xmlns:xlink="http://www.w3.org/1999/xlink">
    <!-- Generator: Sketch 50.2 (55047) - http://www.bohemiancoding.com/sketch -->
    <title>Traffic Monitor</title>
    <desc>Created with Sketch.</desc>
    <defs></defs>
    <g id="Page-1" stroke="none" stroke-width="1" fill="none" fill-rule="evenodd">
        <g id="Traffic---History" transform="translate(-1833.000000, -241.000000)" fill="#FFFFFF" fill-rule="nonzero">
            <g id="Panel-Left" transform="translate(1508.000000, 177.000000)">
                <g id="Second">
                    <g id="Item-1">
                        <g id="Traffic-Monitor" transform="translate(325.000000, 64.000000)">
                            <g id="standing-up-man-">
                                <circle id="Oval" cx="8.27758333" cy="3.19245833" r="3.19245833"></circle>
                                <path d="M9.38966667,7.907125 C8.59420833,7.745625 7.72933333,7.75270833 6.94804167,7.936875 C1.6405,8.55879167 -0.082875,14.7021667 0.40375,19.386375 C0.614833333,21.4115 3.80729167,21.43275 3.59408333,19.386375 C3.417,17.6792917 3.49279167,15.1030833 4.40016667,13.2720417 C4.40016667,15.497625 4.40016667,17.7232083 4.40016667,19.9480833 C4.40016667,20.0267083 4.40795833,20.100375 4.4115,20.1761667 C4.409375,20.2122917 4.400875,20.24275 4.400875,20.2795833 C4.400875,25.5772083 4.39166667,30.8727083 4.17279167,36.1660833 C4.07575,38.5191667 7.724375,38.5099583 7.82070833,36.1660833 C7.992125,32.017375 8.03533333,27.8665417 8.04525,23.715 C8.21808333,23.7263333 8.39091667,23.7263333 8.56375,23.7164167 C8.574375,27.8679583 8.61616667,32.0187917 8.78616667,36.1660833 C8.88320833,38.5099583 12.5318333,38.5191667 12.4340833,36.1660833 C12.2152083,30.8727083 12.2074167,25.5772083 12.2074167,20.2795833 C12.2074167,20.11525 12.1854583,19.9657917 12.1521667,19.822 C12.1472083,17.5220417 12.059375,15.2199583 12.0862917,12.9214167 C13.172875,14.7609583 13.2720417,17.5666667 13.083625,19.3849583 C12.8697083,21.4299167 16.062875,21.409375 16.2739583,19.3849583 C16.7719167,14.6037083 14.9656667,8.30095833 9.38966667,7.907125 Z" id="Shape"></path>
                            </g>
                            <g id="sports-car" transform="translate(17.000000, 8.000000)">
                                <path d="M29.12325,6.945 C28.98,6.77025 28.76625,6.66825 28.542,6.66825 L25.69125,6.66825 C24.98775,4.81275 24.07125,2.99475 23.0295,2.3085 C19.42575,-0.06225 9.867,-0.06225 6.26325,2.3085 C5.22075,2.9955 4.308,4.81575 3.60075,6.66825 L0.75,6.66825 C0.5235,6.66825 0.3105,6.77025 0.16875,6.945 C0.02625,7.119 -0.03075,7.34925 0.01575,7.5705 L0.438,9.6165 C0.51,9.96525 0.8175,10.21425 1.17225,10.21425 L2.01675,10.21425 C1.2015,11.15475 0.80625,12.339 0.801,13.524 C0.79575,14.988 1.3515,16.311 2.36775,17.247 C2.379,17.25675 2.39025,17.2635 2.40075,17.27325 L2.40075,20.136 C2.40075,20.75625 2.90475,21.261 3.52575,21.261 L6.15525,21.261 C6.77625,21.261 7.28025,20.75625 7.28025,20.136 L7.28025,18.9855 L22.011,18.9855 L22.011,20.136 C22.011,20.75625 22.515,21.261 23.136,21.261 L25.7655,21.261 C26.385,21.261 26.8905,20.75625 26.8905,20.136 L26.8905,17.3295 C27.969,16.34175 28.48425,14.98275 28.491,13.626 C28.4955,12.4005 28.08225,11.17275 27.219,10.21275 L28.11975,10.21275 C28.476,10.21275 28.7835,9.96375 28.854,9.61425 L29.277,7.569 C29.3205,7.34925 29.26575,7.1205 29.12325,6.945 Z M7.4985,4.18725 C10.371,2.2965 18.92025,2.2965 21.79125,4.18725 C22.34925,4.55325 23.067,6.033 23.72475,7.845 L5.5665,7.845 C6.22275,6.03375 6.9405,4.55475 7.4985,4.18725 Z M4.134,13.806 C4.134,12.5835 5.1255,11.5935 6.34725,11.5935 C7.5705,11.5935 8.5605,12.5835 8.5605,13.806 C8.5605,15.0285 7.5705,16.01925 6.34725,16.01925 C5.1255,16.01925 4.134,15.0285 4.134,13.806 Z M22.97325,16.01925 C21.7515,16.01925 20.76,15.0285 20.76,13.806 C20.76,12.5835 21.7515,11.5935 22.97325,11.5935 C24.1965,11.5935 25.1865,12.5835 25.1865,13.806 C25.1865,15.0285 24.195,16.01925 22.97325,16.01925 Z" id="Shape"></path>
                            </g>
                        </g>
                    </g>
                </g>
            </g>
        </g>
    </g>
</svg>