<?xml version="1.0" encoding="UTF-8"?>
<svg width="32px" height="45px" viewBox="0 0 32 45" version="1.1" xmlns="http://www.w3.org/2000/svg" xmlns:xlink="http://www.w3.org/1999/xlink">
    <!-- Generator: Sketch 50.2 (55047) - http://www.bohemiancoding.com/sketch -->
    <title>user</title>
    <desc>Created with Sketch.</desc>
    <defs></defs>
    <g id="Page-1" stroke="none" stroke-width="1" fill="none" fill-rule="evenodd">
        <g id="Traffic---History" transform="translate(-1843.000000, -671.000000)" fill="#FFFFFF" fill-rule="nonzero">
            <g id="Panel-Left" transform="translate(1508.000000, 177.000000)">
                <g id="Second">
                    <g transform="translate(36.000000, 440.000000)" id="user">
                        <g transform="translate(299.000000, 54.000000)">
                            <path d="M16.1232593,19.4318025 C21.2519506,19.4318025 25.4087901,15.2741728 25.4087901,10.1462716 C25.4087901,5.01837037 21.2511605,0.861530864 16.1232593,0.861530864 C10.995358,0.861530864 6.83614815,5.01916049 6.83614815,10.1470617 C6.83614815,15.274963 10.995358,19.4318025 16.1232593,19.4318025 Z M20.0620247,20.0646914 L12.1829136,20.0646914 C5.62725926,20.0646914 0.293925926,25.3988148 0.293925926,31.9544691 L0.293925926,41.5900247 L0.318419753,41.7409383 L0.982123457,41.9487407 C7.23832099,43.9035062 12.6735802,44.555358 17.1472593,44.555358 C25.8852346,44.555358 30.9499259,42.0640988 31.2620247,41.905284 L31.8822716,41.5916049 L31.948642,41.5916049 L31.948642,31.9544691 C31.9510123,25.3988148 26.617679,20.0646914 20.0620247,20.0646914 Z" id="Shape"></path>
                        </g>
                    </g>
                </g>
            </g>
        </g>
    </g>
</svg>