<?xml version="1.0" encoding="UTF-8"?>
<svg width="64px" height="59px" viewBox="0 0 64 59" version="1.1" xmlns="http://www.w3.org/2000/svg" xmlns:xlink="http://www.w3.org/1999/xlink">
    <!-- Generator: Sketch 50.2 (55047) - http://www.bohemiancoding.com/sketch -->
    <title>warning</title>
    <desc>Created with Sketch.</desc>
    <defs></defs>
    <g id="Page-1" stroke="none" stroke-width="1" fill="none" fill-rule="evenodd">
        <g id="Error-Handling" transform="translate(-493.000000, -1044.000000)" fill-rule="nonzero">
            <g id="Error" transform="translate(300.000000, 1011.000000)">
                <g id="warning" transform="translate(193.000000, 33.000000)">
                    <path d="M40.367375,4.95525 L62.7095,43.653125 C63.528875,45.07225 64,46.7175 64,48.473875 C64,53.807625 59.676,58.131875 54.342,58.131875 L32,58.131875 L24.273625,29.125 L32,0.11825 C35.5775,0.11825 38.698375,2.064875 40.367375,4.95525 Z" id="Shape" fill="#525A61"></path>
                    <path d="M23.632625,4.95525 L1.290375,43.653125 C0.471125,45.07225 0,46.7175 0,48.473875 C0,53.807625 4.324,58.131875 9.658,58.131875 L32,58.131875 L32,0.11825 C28.4225,0.11825 25.301625,2.064875 23.632625,4.95525 Z" id="Shape" fill="#525A61"></path>
                    <path d="M59.364125,45.58475 L37.022125,6.88725 C36.015125,5.142375 34.166,4.041375 32.166125,3.98475 L51.27475,54.269125 L54.342125,54.269125 C57.537,54.269125 60.136875,51.669375 60.136875,48.474375 C60.136875,47.459625 59.869,46.460375 59.364125,45.58475 Z" id="Shape" fill="#FFD764"></path>
                    <path d="M55.606625,45.58475 C56.043125,46.460375 56.273625,47.459625 56.273625,48.474375 C56.273625,51.66925 54.03175,54.269125 51.274625,54.269125 L9.658,54.269125 C6.463125,54.269125 3.86325,51.66925 3.86325,48.474375 C3.86325,47.459625 4.131125,46.460375 4.635875,45.58475 L26.977875,6.88725 C28.01325,5.09475 29.937125,3.980875 32,3.980875 C32.055375,3.980875 32.11075,3.982125 32.166125,3.98475 C33.882625,4.05175 35.467875,5.150125 36.331875,6.88725 L55.606625,45.58475 Z" id="Shape" fill="#FFD764"></path>
                    <path d="M32,41.391375 L32,47.83 C33.778375,47.83 35.219375,46.389 35.219375,44.610625 C35.219375,42.832375 33.778375,41.391375 32,41.391375 Z" id="Shape" fill="#525A61"></path>
                    <path d="M32,41.391375 C32.355375,41.391375 32.643875,42.832375 32.643875,44.61075 C32.643875,46.389125 32.355375,47.830125 32,47.830125 C30.221625,47.830125 28.780625,46.389125 28.780625,44.61075 C28.780625,42.832375 30.221625,41.391375 32,41.391375 Z" id="Shape" fill="#525A61"></path>
                    <path d="M32,13.70575 L32,37.52875 C33.778375,37.52875 35.219375,36.0865 35.219375,34.309375 L35.219375,16.925125 C35.219375,15.14675 33.778375,13.70575 32,13.70575 Z" id="Shape" fill="#525A61"></path>
                    <path d="M32,13.70575 C32.355375,13.70575 32.643875,15.14675 32.643875,16.925125 L32.643875,34.309375 C32.643875,36.086375 32.355375,37.52875 32,37.52875 C30.221625,37.52875 28.780625,36.0865 28.780625,34.309375 L28.780625,16.925125 C28.780625,15.14675 30.221625,13.70575 32,13.70575 Z" id="Shape" fill="#525A61"></path>
                </g>
            </g>
        </g>
    </g>
</svg>